<?xml version="1.0" encoding="iso-8859-1"?>
<!-- Generator: Adobe Illustrator 25.3.1, SVG Export Plug-In . SVG Version: 6.00 Build 0)  -->
<svg version="1.1" id="Calque_1" xmlns="http://www.w3.org/2000/svg" xmlns:xlink="http://www.w3.org/1999/xlink" x="0px" y="0px"
	 width="504px" height="504px" viewBox="0 0 504 504" enable-background="new 0 0 504 504" xml:space="preserve">
<g>
	<path fill="#1A1A1A" d="M227.19,101.776c0.121,0.478,0.217,0.793,0.278,1.115c0.193,1.019,0.42,2.035,0.538,3.063
		c0.071,0.625,0.27,1.112,0.773,1.483c0.502,0.369,0.983,0.766,1.491,1.127c5.062,3.598,10.453,6.618,16.122,9.144
		c2.225,0.992,2.234,0.931,4.672,1.047c3.527,0.167,7.052,0.402,10.576,0.625c1.534,0.097,3.069,0.202,4.597,0.363
		c5.249,0.552,10.474,1.256,15.557,2.746c1.433,0.42,2.845,0.914,4.266,1.374c0.352,0.114,0.703,0.231,1.102,0.362
		c2.625-2.315,5.415-4.398,8.405-6.246c-0.115-0.633-0.22-1.2-0.321-1.766c-1.23-6.903,0.054-13.305,3.895-19.169
		c1.788-2.73,4.18-4.823,7.082-6.324c0.889-0.46,1.808-0.839,2.792-1.04c0.743-0.152,1.482-0.185,2.209,0.094
		c1.01,0.387,1.596,1.204,1.63,2.281c0.023,0.724-0.202,1.393-0.451,2.056c-0.761,2.021-1.528,4.04-2.292,6.06
		c-0.793,2.098-1.57,4.201-2.383,6.292c-0.951,2.448-2.071,4.808-3.73,6.874c-0.05,0.062-0.066,0.15-0.135,0.312
		c0.189-0.033,0.337-0.034,0.464-0.086c2.542-1.027,5.127-1.929,7.769-2.665c0.408-0.114,0.738-0.301,1.022-0.646
		c2.193-2.659,5.072-4.245,8.326-5.201c3.507-1.031,7.038-1.057,10.587-0.178c2.867,0.71,5.651,1.673,8.401,2.733
		c3.176,1.224,6.338,2.484,9.503,3.738c0.462,0.183,0.927,0.377,1.351,0.633c1.463,0.881,1.532,2.761,0.115,3.705
		c-0.545,0.363-1.176,0.615-1.793,0.851c-2.255,0.864-4.599,1.421-6.951,1.939c-3.291,0.724-6.626,1.196-9.981,1.444
		c-3.578,0.265-7.136,0.083-10.628-0.889c-3.098-0.863-5.831-2.376-8.278-4.437c-0.285-0.24-0.563-0.488-0.825-0.715
		c-5.824,0.87-19.409,7.951-22.308,11.628c0.091,0.072,0.171,0.168,0.274,0.214c2.626,1.161,5.112,2.585,7.597,4.014
		c0.144,0.083,0.3,0.15,0.43,0.25c0.445,0.343,0.891,0.289,1.405,0.129c1.425-0.445,2.852-0.901,4.307-1.225
		c3.302-0.737,6.652-0.956,10.033-0.786c5.442,0.273,10.684,1.461,15.761,3.403c0.564,0.216,1.104,0.301,1.698,0.212
		c2.279-0.341,4.56-0.241,6.838,0.013c1.494,0.166,2.93,0.569,4.324,1.133c2.447,0.991,4.693,2.323,6.685,4.05
		c1.348,1.17,2.666,2.384,3.912,3.66c4.442,4.55,8.891,9.092,13.502,13.473c0.603,0.573,1.194,1.157,1.591,1.905
		c0.279,0.525,0.438,1.072,0.39,1.674c-0.077,0.971-0.556,1.659-1.482,1.95c-0.549,0.172-1.136,0.278-1.711,0.3
		c-5.978,0.224-11.765-0.692-17.273-3.072c-3.358-1.451-6.277-3.555-8.761-6.254c-2.898-3.149-5.142-6.728-6.933-10.595
		c-0.715-1.544-1.347-3.127-1.99-4.702c-0.152-0.372-0.347-0.633-0.729-0.784c-3.485-1.375-7.064-2.397-10.954-3.006
		c0.22,0.266,0.309,0.428,0.444,0.529c2.994,2.237,4.969,5.207,6.227,8.685c0.257,0.709,0.574,1.345,1.079,1.929
		c1.84,2.126,2.888,4.645,3.401,7.384c0.516,2.76,0.448,5.542,0.132,8.321c-0.075,0.66-0.175,1.318-0.285,1.973
		c-0.059,0.348,0,0.656,0.18,0.953c0.129,0.213,0.247,0.433,0.367,0.652c4.444,8.101,7.694,16.647,9.632,25.689
		c0.566,2.642,1.054,5.296,1.387,7.976c0.169,1.359,0.28,2.729,0.339,4.098c0.11,2.574,0.167,5.149,0.24,7.724
		c0.1,3.531,0.172,7.062,0.297,10.592c0.207,5.828-0.572,11.517-2.283,17.088c-0.841,2.739-1.659,5.485-2.459,8.236
		c-0.828,2.845-1.975,5.55-3.41,8.141c-0.785,1.417-1.52,2.861-2.265,4.299c-0.286,0.551-0.538,1.12-0.828,1.726
		c0.182,0.229,0.342,0.464,0.536,0.667c0.402,0.42,0.841,0.806,1.231,1.237c1.776,1.96,2.367,4.249,1.788,6.819
		c-0.191,0.847-0.445,1.692-0.776,2.493c-1.096,2.655-1.89,5.408-2.722,8.149c-0.446,1.47-0.867,2.948-1.343,4.409
		c-1.176,3.605-3.093,6.792-5.544,9.667c-0.927,1.088-2.021,1.991-3.334,2.563c-0.688,0.3-1.051,0.744-1.179,1.455
		c-0.199,1.102-0.485,2.193-0.62,3.302c-0.221,1.814-0.348,3.639-0.52,5.459c-0.254,2.693-0.613,5.37-1.477,7.945
		c-0.408,1.218-0.931,2.397-1.406,3.593c-0.18,0.455-0.37,0.905-0.592,1.446c0.302,0.044,0.493,0.08,0.685,0.098
		c2.108,0.2,4.222,0.358,6.324,0.606c3.139,0.37,6.278,0.681,9.444,0.63c2.653-0.043,5.195-0.548,7.587-1.733
		c2.717-1.346,4.89-3.267,6.332-5.966c0.254-0.476,0.529-0.941,0.806-1.405c0.252-0.422,0.591-0.695,1.125-0.599
		c0.534,0.096,1.006,0.519,1.062,1.079c0.04,0.403,0.002,0.833-0.094,1.228c-0.328,1.357-1.026,2.537-1.88,3.623
		c-0.512,0.651-1.081,1.257-1.701,1.973c0.214-0.02,0.362,0.004,0.471-0.051c2.472-1.224,4.501-2.965,6.024-5.27
		c0.365-0.552,0.628-1.169,0.958-1.745c0.393-0.685,0.812-0.883,1.414-0.703c0.747,0.223,1.172,0.726,1.128,1.443
		c-0.025,0.408-0.135,0.818-0.26,1.211c-0.281,0.881-0.785,1.649-1.33,2.384c-1.455,1.963-3.27,3.517-5.369,4.767
		c-2.618,1.558-5.469,2.37-8.457,2.784c-3.595,0.497-7.196,0.536-10.818,0.323c-3.939-0.232-7.87-0.646-11.821-0.653
		c-0.992-0.002-1.987-0.059-3.037,0.057c-0.515,1.39-0.669,2.837-0.984,4.241c-0.318,1.417-0.6,2.846-0.826,4.28
		c-0.225,1.424-0.453,2.854-0.465,4.386c0.42,0.021,0.784,0.064,1.147,0.054c2.867-0.084,5.726-0.278,8.576-0.618
		c4.537-0.542,9.039-1.308,13.548-2.035c4.591-0.74,9.181-1.499,13.809-1.987c4.504-0.475,9.008-0.963,13.545-0.944
		c4.541,0.018,9.049,0.362,13.449,1.589c2.376,0.663,4.618,1.634,6.68,2.991c2.39,1.573,4.212,3.63,5.206,6.344
		c0.772,2.109,0.859,4.298,0.657,6.515c-0.276,3.037-1.057,5.967-1.903,8.878c-1.469,5.052-3.607,9.818-6.351,14.303
		c-1.634,2.67-3.587,5.092-5.962,7.155c-2.724,2.366-5.809,3.985-9.395,4.58c-1.317,0.219-2.643,0.281-3.975,0.207
		c-0.447-0.025-0.894-0.047-1.468-0.078c0.179,0.462,0.309,0.8,0.442,1.137c1.435,3.649,1.804,7.401,1.054,11.252
		c-0.329,1.687-0.955,3.273-1.86,4.73c-3.051,4.911-7.303,8.379-12.788,10.193c-3.951,1.307-7.977,1.347-12.024,0.203
		c-3.659-1.034-6.73-2.978-9.419-5.611c-1.909-1.869-3.576-3.938-5.099-6.121c-1.973-2.827-3.892-5.692-5.842-8.535
		c-0.728-1.062-1.476-2.111-2.219-3.163c-0.09-0.127-0.203-0.237-0.309-0.359c-0.088,0.088-0.189,0.145-0.185,0.193
		c0.259,3.33,0.124,6.644-0.425,9.938c-0.32,1.925-0.632,3.853-1.02,5.766c-0.309,1.525-0.956,2.907-1.995,4.099
		c-0.374,0.429-0.793,0.72-1.331,0.861c-0.281,0.074-0.566,0.136-0.843,0.223c-0.459,0.143-0.891,0.071-1.339-0.079
		c-1.205-0.402-2.25-1.061-3.177-1.912c-0.428-0.393-0.864-0.788-1.233-1.234c-2.066-2.495-4.217-4.929-5.944-7.683
		c-0.816-1.3-1.53-2.664-2.289-3.999c-0.12-0.211-0.236-0.425-0.433-0.782c-0.132,0.311-0.249,0.47-0.263,0.638
		c-0.175,2.069-0.332,4.141-0.501,6.211c-0.263,3.23-0.479,6.465-0.814,9.688c-0.324,3.107-1.011,6.141-2.193,9.052
		c-1.163,2.864-2.928,5.279-5.217,7.351c-3.005,2.72-6.475,4.483-10.457,5.189c-1.221,0.217-2.479,0.317-3.719,0.309
		c-2.797-0.019-5.538-0.432-8.188-1.389c-2.657-0.96-5.029-2.368-7.049-4.346c-1.229-1.204-2.156-2.635-2.94-4.155
		c-1.153-2.234-1.959-4.579-2.145-7.108c-0.006-0.081-0.042-0.16-0.066-0.248c-0.383-0.211-0.622,0.111-0.868,0.281
		c-1.377,0.952-2.86,1.686-4.437,2.233c-2.97,1.029-6.008,1.185-9.096,0.701c-4.384-0.687-8.346-2.457-12.083-4.769
		c-5.372-3.323-10.148-7.362-14.327-12.1c-1.157-1.312-2.186-2.717-3.064-4.234c-1.352-2.336-1.96-4.833-1.686-7.531
		c0.038-0.371,0.062-0.744,0.089-1.116c0.003-0.038-0.026-0.078-0.067-0.196c-0.172-0.13-0.388-0.321-0.629-0.473
		c-4.896-3.087-8.873-7.108-12.025-11.941c-0.623-0.956-1.371-1.572-2.427-1.984c-2.157-0.84-6.338-2.335-8.6-2.848
		c-0.905,0.687-1.773,1.511-2.606,2.376c-0.282,0.293-0.291,0.671-0.362,1.037c-0.38,1.951-0.214,3.891,0.11,5.825
		c0.101,0.605,0.073,1.249,0.364,1.736c0.857,0.428,1.664,0.766,2.405,1.213c2.04,1.231,3.543,2.994,4.763,5.01
		c1.395,2.305,2.269,4.79,2.602,7.474c0.24,1.937,0.58,3.861,0.846,5.795c0.079,0.572,0.122,1.164,0.071,1.737
		c-0.114,1.298-0.827,1.932-2.118,1.964c-1.006,0.025-1.987-0.145-2.946-0.439c-4.145-1.271-6.931-3.956-8.365-8.05
		c-0.802-2.287-0.883-4.636-0.628-7.015c0.182-1.702,0.587-3.353,1.152-4.966c0.153-0.437,0.271-0.858,0.165-1.334
		c-0.47-2.116-0.723-4.257-0.731-6.427c0-0.076-0.044-0.151-0.096-0.318c-0.142,0.079-0.302,0.12-0.386,0.222
		c-0.97,1.192-1.925,2.397-2.894,3.591c-0.277,0.341-0.413,0.701-0.347,1.148c0.055,0.369,0.055,0.746,0.093,1.118
		c0.319,3.075-0.355,5.942-1.79,8.654c-0.624,1.18-1.38,2.272-2.207,3.315c-2.149,2.711-4.626,5.114-7.081,7.537
		c-0.205,0.202-0.443,0.383-0.692,0.526c-0.808,0.462-1.559,0.262-2-0.551c-0.419-0.773-0.647-1.614-0.777-2.484
		c-0.352-2.368-0.201-4.732,0.131-7.081c0.18-1.27,0.498-2.524,0.814-3.77c0.73-2.877,2.365-5.192,4.561-7.136
		c0.435-0.385,0.916-0.717,1.362-1.09c1.426-1.191,3.124-1.684,4.92-1.924c0.287-0.038,0.578-0.049,0.954-0.079
		c2.136-2.904,4.369-5.789,6.938-8.292c-0.038-0.406-0.291-0.374-0.471-0.409c-1.996-0.393-3.984-0.839-5.993-1.146
		c-2.093-0.319-4.206-0.503-6.311-0.738c-0.243-0.027-0.492-0.004-0.74-0.004c-0.117,0.156-0.222,0.281-0.312,0.417
		c-2.009,3.019-4.848,4.838-8.32,5.726c-1.453,0.372-2.934,0.549-4.437,0.59c-3.595,0.1-7.131-0.336-10.626-1.144
		c-1.901-0.439-3.794-0.91-5.686-1.386c-0.439-0.111-0.881-0.259-1.28-0.468c-1.051-0.55-1.563-1.665-1.341-2.83
		c0.161-0.847,0.573-1.572,1.211-2.132c1.029-0.904,2.049-1.83,3.162-2.621c3.531-2.508,7.41-4.262,11.679-5.07
		c3.201-0.606,6.366-0.48,9.451,0.672c2.494,0.932,4.443,2.558,6.003,4.685c0.098,0.134,0.186,0.276,0.28,0.412
		c0.07,0.101,0.143,0.199,0.267,0.372c1.89,0.136,3.828,0.275,5.872,0.422c-0.113-0.183-0.166-0.327-0.265-0.423
		c-1.501-1.462-2.711-3.145-3.741-4.96c-0.492-0.867-0.944-1.756-1.424-2.63c-1.719-3.132-3.445-6.259-5.159-9.393
		c-0.278-0.508-0.577-1.02-0.753-1.566c-0.543-1.693,0.501-3.147,2.265-3.156c0.616-0.003,1.242,0.099,1.849,0.225
		c2.244,0.467,4.416,1.16,6.454,2.225c0.624,0.326,1.235,0.687,1.819,1.082c2.916,1.974,4.595,4.72,5.119,8.201
		c0.318,2.113,0.304,4.226,0.085,6.339c-0.141,1.361-0.387,2.712-0.581,4.068c-0.035,0.242-0.043,0.487-0.07,0.8
		c1.416,0.443,2.856,0.614,4.246,0.984c1.404,0.374,2.818,0.712,4.213,1.112c1.385,0.398,2.752,0.854,4.11,1.279
		c0.202-0.294-0.008-0.444-0.106-0.595c-0.747-1.15-1.489-2.303-2.267-3.432c-1.276-1.851-2.375-3.805-3.428-5.787
		c-0.764-1.439-1.315-2.951-1.587-4.569c-0.223-1.327-0.223-2.647-0.042-3.971c0.18-1.317,0.383-2.631,0.562-3.948
		c0.05-0.366,0.049-0.739,0.071-1.103c-3.937-4.184-8.55-7.266-13.928-9.283c-0.286,0.155-0.579,0.303-0.862,0.468
		c-2.717,1.588-5.637,2.421-8.796,2.316c-2.136-0.071-4.207-0.515-6.182-1.321c-1.497-0.611-2.992-1.25-4.421-2.003
		c-4.077-2.15-8.122-4.362-12.174-6.56c-0.399-0.216-0.785-0.474-1.132-0.765c-0.54-0.453-0.634-1.047-0.389-1.696
		c0.231-0.61,0.655-1.075,1.223-1.36c0.553-0.277,1.133-0.539,1.731-0.677c4.214-0.966,8.447-1.851,12.791-1.907
		c3.891-0.05,7.711,0.455,11.355,1.902c0.922,0.366,1.83,0.803,2.68,1.313c2.764,1.661,4.631,3.995,5.22,7.238
		c0.007,0.039,0.037,0.074,0.067,0.13c1.306,0.593,2.642,1.163,3.945,1.802c1.249,0.612,2.463,1.296,3.954,2.087
		c-1.296-2.161-2.285-4.146-2.666-6.373c-0.385-2.251-0.253-4.473,0.388-6.66c0.635-2.168,1.635-4.165,2.999-5.953
		c-0.126-0.309-0.213-0.539-0.314-0.764c-1.219-2.717-1.9-5.578-2.23-8.523c-0.277-2.477-0.457-4.965-0.758-7.438
		c-0.155-1.273-0.478-2.526-0.734-3.786c-0.097-0.477-0.367-0.792-0.835-0.995c-1.72-0.746-3.052-1.975-4.204-3.431
		c-2.319-2.93-4.107-6.137-5.182-9.728c-0.738-2.466-1.472-4.934-2.249-7.388c-0.413-1.305-0.924-2.579-1.371-3.873
		c-0.325-0.941-0.68-1.877-0.916-2.842c-0.675-2.762,0.006-5.177,1.992-7.216c0.491-0.504,0.991-0.999,1.523-1.534
		c-0.135-0.329-0.237-0.637-0.383-0.924c-0.791-1.554-1.542-3.132-2.402-4.648c-1.753-3.09-3.077-6.344-4.035-9.761
		c-0.706-2.518-1.477-5.019-2.236-7.522c-1.554-5.129-2.325-10.368-2.207-15.73c0.121-5.484,0.233-10.969,0.399-16.451
		c0.278-9.215,2.149-18.123,5.274-26.781c0.182-0.504,0.355-1.011,0.519-1.477c-0.172-0.458-0.578-0.536-0.888-0.718
		c-2.717-1.597-5.051-3.623-7.018-6.093c-3.042-3.819-4.143-8.159-3.602-12.965c0.215-1.912,0.672-3.759,1.442-5.525
		c0.08-0.184,0.119-0.387,0.17-0.583c0.009-0.034-0.022-0.079-0.049-0.164c-0.392,0-0.801-0.019-1.206,0.003
		c-4.64,0.255-8.748-1.127-12.427-3.937c-3.161-2.415-5.563-5.468-7.545-8.865c-3.592-6.156-5.987-12.769-7.347-19.759
		c-0.342-1.759-0.453-3.541-0.39-5.335c0.135-3.82,1.813-6.848,4.734-9.23c1.328-1.083,2.827-1.892,4.386-2.591
		c2.443-1.096,5.011-1.763,7.647-2.165c3.498-0.533,7.021-0.774,10.559-0.68c2.782,0.074,5.561,0.245,8.329,0.56
		c2.393,0.273,4.793,0.494,7.182,0.803c2.594,0.336,5.18,0.732,7.766,1.129c4.966,0.762,9.919,1.614,14.896,2.297
		c5.982,0.821,11.999,1.058,18.032,0.646c1.243-0.085,2.484-0.195,3.725-0.316c0.453-0.044,0.899-0.157,1.35-0.229
		c0.302-0.048,0.555-0.174,0.728-0.429c0.866-1.275,1.897-2.41,2.98-3.43c-0.02-0.162-0.004-0.261-0.045-0.32
		c-1.547-2.253-3.392-4.196-5.797-5.553c-1.83-1.033-3.805-1.636-5.863-2.011c-3.456-0.629-6.944-0.679-10.435-0.548
		c-2.698,0.101-5.39,0.336-8.087,0.472c-2.862,0.145-5.722,0.419-8.593,0.259c-3.115-0.174-6.217-0.44-9.21-1.405
		c-3.733-1.203-6.904-3.232-9.305-6.38c-0.762-0.999-1.379-2.073-1.659-3.317c-0.142-0.63,0.003-1.151,0.511-1.558
		c0.72-0.576,1.522-0.426,1.994,0.374c0.084,0.143,0.148,0.297,0.222,0.446c1.467,2.933,3.751,5.036,6.633,6.529
		c0.131,0.068,0.288,0.083,0.659,0.185c-0.342-0.383-0.524-0.59-0.71-0.794c-1.038-1.144-1.986-2.356-2.561-3.804
		c-0.228-0.573-0.385-1.186-0.479-1.796c-0.107-0.694,0.248-1.238,0.854-1.51c0.42-0.189,0.823-0.12,1.127,0.238
		c0.187,0.219,0.336,0.474,0.481,0.724c0.271,0.467,0.516,0.949,0.792,1.413c1.941,3.269,4.842,5.295,8.401,6.458
		c1.55,0.507,3.148,0.745,4.777,0.786c2.747,0.068,5.48-0.087,8.208-0.41c4.126-0.489,8.251-0.965,12.421-0.88
		c3.236,0.066,6.352,0.59,9.312,1.96c2.451,1.134,4.6,2.656,6.349,4.719c0.698,0.823,1.358,1.679,2.031,2.524
		c0.257,0.322,0.503,0.654,0.803,1.046c0.382-0.167,0.752-0.326,1.121-0.49c2.785-1.236,5.612-1.403,8.476-0.3
		c2.073,0.798,3.714,2.171,5.074,3.902c0.23,0.293,0.46,0.587,0.694,0.877c0.024,0.029,0.071,0.04,0.195,0.105
		c0.279-0.107,0.625-0.226,0.96-0.371c1.524-0.663,3.059-1.301,4.677-1.698c4.084-1,8.081-0.634,11.986,0.857
		c1.789,0.683,3.454,1.622,5.1,2.597c2.472,1.464,4.789,3.149,7.089,4.86c2.134,1.587,4.26,3.187,6.564,4.524
		c1.04,0.604,2.095,1.192,3.184,1.7c3.274,1.527,6.703,1.837,10.221,1.116c1.263-0.259,2.45-0.781,3.57-1.433
		c0.61-0.355,1.221-0.708,1.833-1.059c0.385-0.221,0.771-0.303,1.158,0.006c0.462,0.37,0.685,0.927,0.483,1.434
		c-0.135,0.339-0.327,0.689-0.585,0.939c-0.505,0.487-1.045,0.952-1.626,1.345c-1.073,0.727-2.272,1.202-3.513,1.564
		c-0.345,0.101-0.687,0.203-1.008,0.373c3.364,0.371,6.511-0.222,9.401-2.003c0.247-0.152,0.473-0.342,0.726-0.483
		c0.631-0.353,1.154-0.288,1.584,0.173c0.448,0.48,0.586,1.197,0.243,1.723c-0.245,0.376-0.574,0.71-0.915,1.006
		c-0.76,0.661-1.657,1.099-2.583,1.48c-2.22,0.914-4.529,1.315-6.93,1.291c-2.825-0.028-5.513-0.664-8.124-1.692
		c-2.907-1.145-5.677-2.566-8.297-4.264c-2.928-1.898-5.821-3.85-8.733-5.773c-2.325-1.535-4.722-2.947-7.215-4.191
		c-2.048-1.021-4.164-1.865-6.396-2.409c-3.127-0.762-6.184-0.517-9.19,0.564C228.8,101.081,228.047,101.424,227.19,101.776z
		 M330.053,253.145c0.169-0.269,0.309-0.458,0.415-0.665c0.588-1.146,1.168-2.295,1.749-3.444c1.072-2.119,1.944-4.315,2.575-6.605
		c0.728-2.642,1.479-5.277,2.185-7.925c1.43-5.369,2.2-10.82,2.007-16.391c-0.121-3.488-0.202-6.978-0.315-10.466
		c-0.086-2.658-0.136-5.319-0.309-7.971c-0.217-3.318-0.762-6.597-1.361-9.869c-1.316-7.189-3.555-14.085-6.504-20.755
		c-1.92-4.342-4.181-8.5-7.104-12.265c-2.985-3.845-6.206-7.485-9.595-10.975c-2.73-2.812-5.827-5.197-8.99-7.493
		c-3.635-2.639-7.395-5.074-11.471-6.997c-10.11-4.769-20.795-7.325-31.885-8.333c-0.358-0.033-0.721-0.004-1.091-0.004
		c0.053,0.358,0.343,0.374,0.551,0.456c1.314,0.515,2.635,1.011,3.953,1.517c5.973,2.292,11.833,4.846,17.532,7.754
		c4.346,2.217,8.407,4.877,12.054,8.135c2.309,2.062,4.321,4.375,5.729,7.161c2.188,4.329,2.213,8.608-0.314,12.827
		c-0.879,1.467-1.898,2.828-3.033,4.103c-4.427,4.973-9.481,9.194-15.22,12.57c-3.533,2.078-7.28,3.637-11.375,4.214
		c-2.577,0.363-5.139,0.291-7.663-0.405c-1.978-0.545-3.815-1.399-5.518-2.546c-0.25-0.168-0.462-0.49-0.843-0.353
		c-0.036,0.092-0.079,0.166-0.094,0.245c-0.053,0.286-0.107,0.572-0.143,0.861c-0.401,3.164-1.654,5.987-3.446,8.589
		c-1.392,2.021-3.188,3.607-5.349,4.763c-4.622,2.472-9.576,3.354-14.721,2.576c-6.203-0.938-11.017-4.199-14.471-9.442
		c-0.989-1.502-1.681-3.145-2.252-4.845c-0.109-0.326-0.122-0.726-0.478-0.984c-0.205,0.147-0.383,0.251-0.533,0.386
		c-1.581,1.421-3.007,2.98-4.249,4.711c-0.42,0.585-0.547,1.138-0.371,1.848c0.372,1.5,0.491,3.024,0.283,4.573
		c-0.409,3.053-1.6,5.772-3.616,8.073c-1.531,1.747-3.221,3.355-4.857,5.009c-0.226,0.229-0.529,0.407-0.828,0.533
		c-0.802,0.338-1.486,0.102-1.918-0.639c-0.145-0.25-0.246-0.526-0.36-0.793c-0.615-1.437-0.797-2.961-0.892-4.5
		c-0.295-4.782,1.141-8.936,4.575-12.323c1.28-1.263,2.724-2.315,4.513-2.77c0.351-0.089,0.579-0.29,0.782-0.567
		c0.441-0.604,0.903-1.192,1.342-1.797c0.105-0.145,0.156-0.329,0.244-0.523c-1.601-0.372-3.133-0.378-4.562-0.334
		c-0.985,0.793-1.854,1.567-2.796,2.239c-2.608,1.857-5.545,3.025-8.634,3.743c-2.624,0.609-5.298,1.004-7.953,1.474
		c-0.363,0.064-0.752,0.067-1.116,0.014c-0.984-0.142-1.577-0.86-1.431-1.836c0.097-0.647,0.298-1.302,0.582-1.892
		c0.971-2.018,2.361-3.704,4.177-5.03c2.115-1.544,4.517-2.251,7.094-2.42c2.38-0.156,4.732,0.074,7.042,0.672
		c0.813,0.211,1.617,0.325,2.46,0.185c0.488-0.081,0.994-0.07,1.492-0.075c2.162-0.021,4.308,0.153,6.447,0.606
		c0.794-0.689,1.573-1.365,2.356-2.045c-0.022-0.289-0.032-0.536-0.061-0.78c-0.227-1.938-0.51-3.872-0.675-5.816
		c-0.305-3.601-0.54-7.209-0.806-10.813c-0.048-0.644-0.12-1.285-0.281-2.015c-0.443,0.341-0.539,0.762-0.724,1.114
		c-1.081,2.064-2.252,4.075-3.681,5.919c-1.17,1.511-2.366,3.003-3.585,4.475c-0.608,0.735-1.27,1.429-1.948,2.101
		c-0.959,0.951-2.102,1.612-3.395,2.018c-0.368,0.115-0.722,0.174-1.097,0.063c-0.398-0.117-0.816-0.183-1.195-0.344
		c-0.334-0.142-0.698-0.323-0.921-0.593c-0.474-0.572-0.916-1.184-1.279-1.831c-0.553-0.984-0.848-2.075-1.058-3.18
		c-0.248-1.305-0.476-2.615-0.67-3.929c-0.274-1.848-0.624-3.69-0.628-5.568c-0.004-1.703,0.019-3.405,0.024-5.108
		c0.001-0.185,0.101-0.419-0.26-0.548c-0.847,1.147-1.666,2.338-2.481,3.533c-2.248,3.294-4.484,6.597-6.784,9.854
		c-1.611,2.281-3.499,4.327-5.616,6.158c-3.485,3.014-7.56,4.595-12.115,4.991c-2.041,0.178-4.063-0.045-6.067-0.458
		c-0.471-0.097-0.935-0.317-1.396-0.253c-0.088,0.133-0.146,0.195-0.175,0.27c-0.135,0.348-0.266,0.698-0.391,1.051
		c-1.733,4.909-2.935,9.954-3.801,15.081c-0.484,2.868-0.896,5.75-1.008,8.66c-0.205,5.315-0.328,10.632-0.542,15.947
		c-0.217,5.391,0.259,10.711,1.525,15.952c0.556,2.3,1.277,4.559,1.822,6.861c1.09,4.606,2.935,8.902,5.187,13.041
		c0.097,0.178,0.214,0.344,0.336,0.538c0.122-0.112,0.248-0.178,0.294-0.28c0.714-1.566,1.249-3.179,1.08-4.932
		c-0.1-1.032-0.209-2.069-0.414-3.083c-0.395-1.953-0.917-3.881-1.286-5.838c-0.51-2.702-1.214-5.342-2.176-7.917
		c-0.421-1.128-0.812-2.267-1.206-3.405c-1.251-3.612-1.466-7.31-0.888-11.067c0.062-0.406,0.182-0.815,0.349-1.189
		c0.249-0.557,0.938-0.883,1.557-0.808c0.648,0.078,1.02,0.4,1.139,1.121c0.101,0.611,0.134,1.238,0.149,1.859
		c0.059,2.371,0.219,4.73,0.763,7.049c0.428,1.827,1.089,3.574,1.826,5.293c1.235,2.879,2.125,5.847,2.494,8.97
		c0.09,0.763,0.12,1.57,0.568,2.4c0.07-0.268,0.12-0.41,0.143-0.557c0.322-2.017,0.436-4.049,0.383-6.087
		c-0.058-2.201-0.118-4.404-0.26-6.601c-0.266-4.112,0.229-8.122,1.398-12.065c0.283-0.953,0.486-1.931,0.698-2.904
		c0.358-1.638,0.268-3.308,0.315-4.967c0.066-2.287,0.213-4.567,0.688-6.809c0.171-0.809,0.44-1.598,0.697-2.386
		c0.088-0.269,0.244-0.532,0.426-0.751c0.296-0.357,0.711-0.408,1.139-0.285c0.41,0.118,0.695,0.486,0.693,0.932
		c-0.001,0.329-0.054,0.661-0.114,0.986c-0.337,1.842-0.564,3.698-0.599,5.57c-0.033,1.786-0.027,3.574-0.001,5.36
		c0.024,1.67-0.092,3.32-0.476,4.948c-0.153,0.646-0.287,1.297-0.428,1.946c-0.664,3.063-0.911,6.153-0.704,9.287
		c0.183,2.777,0.32,5.559,0.418,8.34c0.174,4.937-0.59,9.774-1.68,14.567c-0.702,3.09-2.056,5.878-4.109,8.297
		c-0.858,1.011-1.809,1.945-2.752,2.879c-1.188,1.177-1.653,2.58-1.32,4.201c0.174,0.848,0.483,1.672,0.765,2.494
		c0.62,1.806,1.297,3.593,1.886,5.408c0.756,2.33,1.43,4.686,2.172,7.02c0.928,2.919,2.388,5.569,4.214,8.016
		c0.493,0.661,1.093,1.25,1.687,1.828c0.915,0.889,2.005,1.442,3.275,1.678c2.489,0.464,4.964,0.999,7.399,1.704
		c2.768,0.802,5.6,1.181,8.48,1.259c1.119,0.03,2.242,0.12,3.352,0.268c1.484,0.197,2.94,0.535,4.318,1.15
		c2.997,1.336,4.767,3.637,5.42,6.836c0.26,1.272,0.3,2.556,0.288,3.846c-0.018,1.953-0.066,3.906-0.061,5.86
		c0.002,0.912,0.099,1.823,0.148,2.735c0.116,2.153,1.275,3.631,3.061,4.681c1.038,0.61,2.093,1.194,3.164,1.741
		c1.008,0.515,2.083,0.799,3.231,0.824c0.745,0.016,1.49,0.114,2.232,0.201c1.445,0.17,2.891,0.403,4.347,0.23
		c1.639-0.195,3.222-0.043,4.791,0.475c0.996,0.329,2.023,0.399,3.07,0.123c1.313-0.345,2.638-0.242,3.952,0.043
		c0.446,0.097,0.89,0.204,1.334,0.311c1.024,0.248,1.951,0.108,2.829-0.536c1.514-1.109,3.252-1.453,5.086-1.205
		c1.149,0.155,2.284,0.423,3.416,0.678c1.32,0.298,2.632,0.321,3.949,0.005c0.686-0.165,1.371-0.336,2.062-0.483
		c2.365-0.505,4.63-0.391,6.657,1.118c0.717,0.534,1.519,0.634,2.37,0.481c0.408-0.073,0.814-0.166,1.215-0.27
		c1.555-0.402,3.112-0.484,4.682-0.08c0.655,0.168,1.319,0.145,1.976-0.007c0.445-0.103,0.888-0.213,1.325-0.344
		c1.209-0.362,2.434-0.488,3.694-0.351c1.285,0.139,2.568,0.102,3.854-0.069c1.193-0.159,2.399-0.21,3.594-0.355
		c0.654-0.08,1.331-0.168,1.938-0.405c1.824-0.712,3.523-1.671,5.109-2.824c1.134-0.825,1.762-1.94,1.982-3.327
		c0.177-1.114,0.266-2.227,0.253-3.351c-0.023-1.995-0.051-3.989-0.071-5.984c-0.013-1.29,0.034-2.575,0.303-3.844
		c0.654-3.094,2.365-5.36,5.257-6.679c0.676-0.309,1.391-0.551,2.11-0.745c1.935-0.524,3.918-0.716,5.918-0.76
		c2.544-0.056,5.059-0.365,7.511-1.04c2.644-0.728,5.298-1.402,7.999-1.872c1.499-0.261,2.729-0.962,3.775-2.024
		c0.466-0.473,0.936-0.952,1.329-1.484c1.711-2.318,3.129-4.801,4.056-7.543c0.332-0.983,0.661-1.968,0.958-2.962
		c1.08-3.621,2.144-7.246,3.564-10.755c0.247-0.61,0.425-1.266,0.521-1.917c0.219-1.481-0.174-2.8-1.251-3.875
		c-0.5-0.499-1.036-0.962-1.528-1.468c-2.477-2.55-4.302-5.499-5.218-8.946c-1.016-3.823-1.61-7.726-1.856-11.673
		c-0.176-2.824-0.039-5.648,0.17-8.469c0.123-1.657,0.209-3.318,0.265-4.979c0.103-3.051-0.276-6.056-1.006-9.013
		c-0.512-2.074-0.713-4.165-0.661-6.298c0.089-3.617,0.075-7.232-0.677-10.798c-0.042-0.201-0.054-0.413-0.05-0.619
		c0.009-0.465,0.254-0.809,0.659-0.959c0.445-0.165,0.955-0.044,1.237,0.329c0.148,0.196,0.267,0.423,0.354,0.654
		c0.176,0.465,0.351,0.934,0.475,1.415c0.661,2.55,0.835,5.159,0.92,7.779c0.054,1.659-0.051,3.33,0.313,4.967
		c0.261,1.174,0.527,2.35,0.857,3.506c1.047,3.67,1.459,7.401,1.26,11.214c-0.142,2.738-0.242,5.48-0.27,8.222
		c-0.018,1.739,0.095,3.482,0.484,5.286c0.313-0.417,0.351-0.825,0.421-1.225c0.285-1.636,0.525-3.282,0.878-4.903
		c0.434-1.995,1.235-3.873,2.02-5.752c0.9-2.152,1.651-4.351,1.974-6.671c0.246-1.77,0.371-3.552,0.396-5.341
		c0.009-0.619,0.098-1.24,0.187-1.854c0.066-0.458,0.388-0.714,0.816-0.849c0.748-0.236,1.56,0.102,1.881,0.812
		c0.119,0.263,0.218,0.546,0.262,0.83c0.356,2.268,0.476,4.544,0.199,6.831c-0.271,2.243-0.929,4.383-1.724,6.485
		c-1.059,2.801-1.983,5.639-2.565,8.583c-0.338,1.71-0.736,3.409-1.096,5.115c-0.223,1.056-0.451,2.112-0.628,3.176
		c-0.358,2.153-0.053,4.221,0.896,6.189C329.8,252.807,329.908,252.93,330.053,253.145z M313.787,295.413
		c0,0.272-0.006,0.517,0.001,0.761c0.075,2.768-0.385,5.463-1.144,8.112c-0.62,2.163-1.534,4.21-2.51,6.232
		c-1.535,3.18-3.018,6.385-4.16,9.732c-1.113,3.263-1.568,6.622-1.243,10.064c0.289,3.06,0.642,6.114,0.929,9.174
		c0.238,2.533,0.16,5.066-0.184,7.586c-0.158,1.155-0.439,2.287-0.96,3.339c-0.164,0.331-0.368,0.654-0.608,0.933
		c-0.311,0.361-0.735,0.355-1.108,0.049c-0.481-0.394-0.533-0.9-0.406-1.467c0.679-3.041,0.569-6.12,0.318-9.185
		c-0.274-3.353-0.678-6.695-1.044-10.04c-0.497-4.535-0.044-8.954,1.552-13.243c1.029-2.765,2.173-5.48,3.456-8.138
		c0.613-1.271,1.201-2.557,1.728-3.866c0.999-2.482,1.576-5.072,1.808-7.736c0.038-0.435,0.162-0.896-0.084-1.329
		c-1.136,0.176-2.246,0.324-3.346,0.526c-1.134,0.208-2.313,0.084-3.461,0.436c-0.026,0.188-0.065,0.348-0.067,0.509
		c-0.029,2.38-0.425,4.71-0.924,7.029c-0.536,2.488-1.461,4.845-2.35,7.217c-0.888,2.371-1.751,4.752-2.601,7.137
		c-0.906,2.542-1.659,5.143-2.836,7.579c-0.831,1.718-1.734,3.403-2.644,5.082c-0.815,1.503-1.607,3.006-1.809,4.739
		c-0.014,0.123-0.048,0.245-0.077,0.366c-0.412,1.688-1.434,2.875-2.99,3.614c-0.336,0.16-0.699,0.263-1.042,0.409
		c-0.762,0.325-1.52,0.658-2.277,0.993c-0.379,0.168-0.74,0.389-1.132,0.515c-1.376,0.443-2.544,1.203-3.558,2.221
		c-0.961,0.965-2.114,1.601-3.435,1.923c-1.637,0.399-3.116,1.121-4.477,2.109c-0.962,0.698-2.04,1.086-3.241,1.148
		c-1.131,0.058-2.207,0.335-3.216,0.879c-1.281,0.69-2.643,0.972-4.095,0.68c-0.162-0.033-0.33-0.038-0.495-0.058
		c-0.694-0.084-1.316,0.104-1.877,0.508c-0.236,0.17-0.469,0.346-0.692,0.531c-1.087,0.905-2.335,1.186-3.727,1.05
		c-0.948-0.093-1.907-0.098-2.861-0.115c-1.287-0.023-2.572,0.001-3.851-0.219c-0.941-0.162-1.895-0.222-2.851-0.049
		c-1.603,0.29-3.223,0.279-4.845,0.253c-0.704-0.011-1.41,0.068-2.115,0.102c-0.414,0.02-0.83,0.059-1.243,0.044
		c-1.09-0.041-1.999-0.534-2.797-1.231c-0.838-0.732-1.767-1.052-2.874-0.821c-1.45,0.303-2.813,0.009-4.093-0.681
		c-1.01-0.544-2.09-0.775-3.216-0.89c-0.574-0.059-1.165-0.138-1.701-0.335c-0.577-0.213-1.13-0.528-1.638-0.881
		c-1.275-0.886-2.626-1.597-4.141-1.958c-1.496-0.356-2.779-1.074-3.862-2.16c-0.146-0.147-0.315-0.272-0.464-0.415
		c-0.639-0.615-1.385-1.048-2.21-1.365c-0.58-0.223-1.173-0.436-1.712-0.739c-0.802-0.451-1.639-0.8-2.507-1.089
		c-0.353-0.118-0.702-0.257-1.036-0.422c-1.459-0.721-2.429-1.852-2.835-3.442c-0.092-0.362-0.195-0.725-0.241-1.095
		c-0.119-0.967-0.496-1.842-0.931-2.695c-0.358-0.703-0.746-1.391-1.14-2.075c-1.643-2.852-2.978-5.841-4.041-8.957
		c-0.979-2.868-1.987-5.726-3.009-8.579c-0.49-1.368-1.049-2.711-1.563-4.07c-1.166-3.087-1.895-6.277-2.21-9.56
		c-0.087-0.903-0.136-1.81-0.207-2.781c-0.476-0.066-0.92-0.13-1.364-0.189c-1.605-0.212-3.21-0.424-4.815-0.634
		c-0.228-0.03-0.461-0.199-0.73,0.051c0,0.332-0.042,0.707,0.008,1.069c0.176,1.274,0.331,2.555,0.591,3.814
		c0.531,2.579,1.557,4.983,2.669,7.36c1.055,2.256,2.059,4.537,3.038,6.827c1.998,4.672,2.829,9.538,2.307,14.611
		c-0.335,3.265-0.697,6.527-1.015,9.793c-0.322,3.317-0.456,6.634,0.235,9.929c0.042,0.201,0.072,0.414,0.053,0.616
		c-0.047,0.499-0.322,0.844-0.792,1.022c-0.347,0.131-0.696-0.04-1.02-0.523c-0.161-0.24-0.316-0.495-0.411-0.766
		c-0.261-0.742-0.558-1.482-0.717-2.248c-0.331-1.588-0.474-3.202-0.494-4.828c-0.046-3.752,0.394-7.467,0.886-11.173
		c0.563-4.243,0.177-8.369-1.287-12.391c-1.081-2.969-2.39-5.841-3.738-8.695c-0.585-1.239-1.174-2.478-1.693-3.745
		c-1.466-3.576-2.259-7.29-2.173-11.171c0.004-0.203-0.023-0.407-0.037-0.638c-1.158-0.402-2.316-0.621-3.574-0.757
		c0.047,0.254,0.07,0.409,0.104,0.562c0.286,1.296,0.623,2.583,0.848,3.89c0.274,1.595,0.447,3.208,0.677,4.811
		c0.451,3.145,1.28,6.174,2.734,9.019c0.586,1.146,1.123,2.317,1.638,3.497c0.752,1.723,1.251,3.519,1.423,5.398
		c0.201,2.192,0.435,4.382,0.598,6.578c0.247,3.315,0.418,6.629,0.199,9.961c-0.172,2.619-0.527,5.208-0.952,7.789
		c-0.436,2.65-0.068,5.136,1.25,7.464c0.879,1.553,1.766,3.109,2.759,4.59c1.317,1.966,2.714,3.881,4.125,5.783
		c2.178,2.936,4.315,5.904,6.714,8.672c3.189,3.679,6.854,6.769,11.13,9.108c1.93,1.056,3.889,2.058,5.84,3.076
		c2.614,1.364,5.229,2.723,7.848,4.076c3.098,1.601,6.193,3.209,9.306,4.781c1.036,0.523,2.121,0.949,3.189,1.408
		c2.971,1.276,6.11,1.841,9.3,2.189c0.619,0.068,1.243,0.103,1.86,0.184c1.377,0.183,2.735-0.034,4.101-0.147
		c3.923-0.325,7.722-1.16,11.288-2.858c2.886-1.374,5.744-2.807,8.589-4.264c3.621-1.855,7.218-3.758,10.822-5.647
		c1.691-0.886,3.383-1.773,5.06-2.686c3.828-2.084,7.258-4.692,10.163-7.947c1.548-1.734,3.04-3.525,4.461-5.364
		c1.981-2.564,3.883-5.19,5.796-7.806c1.718-2.35,3.302-4.787,4.648-7.373c1.173-2.252,1.536-4.611,1.135-7.126
		c-0.418-2.624-0.799-5.251-0.966-7.912c-0.217-3.457-0.047-6.893,0.243-10.332c0.126-1.49,0.288-2.978,0.378-4.47
		c0.165-2.724,0.72-5.345,1.898-7.819c0.571-1.2,1.139-2.401,1.714-3.6c0.757-1.579,1.369-3.215,1.72-4.929
		c0.35-1.707,0.644-3.428,0.888-5.153c0.325-2.303,0.577-4.617,1.277-6.849c0.046-0.147,0.056-0.305,0.099-0.551
		C316.129,294.784,314.971,294.997,313.787,295.413z M184.875,125.712c-0.162-0.207-0.229-0.313-0.316-0.4
		c-1.32-1.307-2.266-2.856-2.956-4.571c-0.403-1.001-0.82-1.998-1.224-2.999c-0.947-2.35-1.911-4.692-3.288-6.836
		c-0.201-0.313-0.34-0.665-0.521-0.992c-1.158-2.087-1.43-4.307-1.028-6.636c0.055-0.319,0.063-0.646,0.092-0.965
		c-0.157-0.085-0.258-0.176-0.37-0.194c-8.931-1.455-17.847-3.027-26.878-3.766c-0.197-0.016-0.397-0.002-0.553-0.002
		c-0.083,0.143-0.145,0.208-0.159,0.283c-0.029,0.162-0.04,0.329-0.047,0.494c-0.1,2.401,0.291,4.716,1.221,6.937
		c0.481,1.149,0.96,2.299,1.443,3.447c0.822,1.956,1.531,3.954,2,6.021c0.367,1.617,0.615,3.263,0.871,4.903
		c0.426,2.73,1.195,5.333,2.53,7.773c0.756,1.381,1.36,2.845,2.047,4.265c0.416,0.859,0.818,1.728,1.3,2.55
		c0.782,1.332,1.776,2.492,3.017,3.462c0.267-0.127,0.496-0.218,0.708-0.34c2.339-1.347,4.677-2.694,7.01-4.05
		c4.81-2.796,9.601-5.624,14.6-8.078C184.516,125.949,184.646,125.854,184.875,125.712z M341.917,370.887
		c0.348-0.315,0.695-0.605,1.016-0.923c1.346-1.333,2.31-2.917,3.092-4.634c0.757-1.66,1.568-3.295,2.377-4.931
		c0.645-1.303,1.32-2.595,1.648-4.022c0.316-1.372,0.656-2.747,0.845-4.14c0.512-3.769,1.513-7.391,3.029-10.877
		c0.48-1.103,0.932-2.218,1.379-3.335c0.799-1.996,1.099-4.081,1.071-6.219c-0.004-0.322-0.067-0.643-0.106-1.001
		c-0.313,0-0.559-0.021-0.8,0.003c-2.023,0.206-4.047,0.403-6.066,0.638c-2.184,0.254-4.371,0.498-6.544,0.831
		c-4.634,0.711-9.261,1.474-13.889,2.225c-0.227,0.037-0.44,0.161-0.685,0.254c0.064,0.401,0.123,0.723,0.166,1.047
		c0.304,2.32,0.116,4.559-1.084,6.635c-0.332,0.575-0.658,1.154-0.962,1.743c-0.59,1.142-1.21,2.271-1.73,3.444
		c-0.757,1.706-1.458,3.438-2.144,5.174c-0.725,1.836-1.681,3.517-3.082,4.927c-0.108,0.109-0.18,0.254-0.242,0.344
		c0.034,0.111,0.035,0.173,0.06,0.185c7.551,3.751,14.737,8.153,22.053,12.325C341.494,370.682,341.678,370.766,341.917,370.887z
		 M232.348,138.472c0.123,0.226,0.22,0.442,0.351,0.637c2.25,3.345,4.326,6.797,6.331,10.292c1.984,3.458,3.96,6.921,5.948,10.377
		c0.222,0.385,0.378,0.83,0.8,1.11c0.211-0.034,0.416-0.057,0.615-0.102c2.058-0.463,3.9-1.385,5.604-2.616
		c1.481-1.07,2.948-2.167,4.487-3.147c1.947-1.24,3.685-2.695,5.158-4.468c0.664-0.799,1.335-1.592,1.979-2.406
		c1.216-1.535,2.524-2.987,4.016-4.254c1.202-1.021,2.467-1.969,3.705-2.948c0.977-0.773,1.971-1.526,2.93-2.321
		c1.592-1.321,2.741-2.995,3.717-4.798c0.076-0.14,0.104-0.305,0.154-0.459c-0.124-0.099-0.209-0.201-0.318-0.249
		c-3.07-1.37-6.102-2.834-9.222-4.079c-5.433-2.169-10.92-4.204-16.385-6.293c-0.036-0.014-0.085-0.012-0.123-0.001
		c-0.038,0.011-0.069,0.043-0.162,0.106c-0.055,0.134-0.135,0.322-0.211,0.512c-0.076,0.193-0.143,0.39-0.222,0.582
		c-0.846,2.052-2.112,3.758-4.045,4.915c-0.57,0.341-1.119,0.72-1.703,1.034c-1.285,0.69-2.489,1.5-3.64,2.392
		c-1.445,1.12-2.898,2.229-4.337,3.356c-1.521,1.19-3.166,2.132-5.057,2.6C232.61,138.271,232.517,138.366,232.348,138.472z
		 M222.122,129.682c-0.147,0.398-0.272,0.698-0.371,1.007c-0.751,2.344-1.794,4.554-3.1,6.636c-0.727,1.16-1.475,2.309-2.263,3.428
		c-1.037,1.472-1.57,3.084-1.615,4.885c-0.033,1.326-0.169,2.65-0.222,3.976c-0.02,0.49,0.03,0.991,0.113,1.476
		c0.188,1.103,0.482,2.192,0.615,3.301c0.297,2.471,0.524,4.951,0.776,7.427c0.066,0.654,0.118,1.309,0.179,1.996
		c0.261,0.069,0.454,0.133,0.652,0.169c0.326,0.058,0.655,0.108,0.984,0.144c3.065,0.337,6.052-0.054,8.95-1.061
		c2.121-0.738,4.278-1.294,6.486-1.71c2.602-0.491,4.825-1.735,6.565-3.77c0.182-0.212,0.327-0.455,0.467-0.654
		c-0.076-0.192-0.108-0.314-0.169-0.42c-2.726-4.75-5.427-9.514-8.376-14.134c-2.731-4.278-5.812-8.29-9.09-12.157
		C222.549,130.042,222.356,129.897,222.122,129.682z M186.079,155.772c0.319-0.471,0.551-0.813,0.781-1.156
		c2.181-3.24,4.398-6.453,7.106-9.29c0.225-0.236,0.412-0.523,0.562-0.814c0.666-1.29,1.287-2.605,1.973-3.884
		c0.895-1.669,1.163-3.42,0.982-5.298c-0.371-3.859-0.411-7.713,0.514-11.52c0.041-0.167-0.028-0.361-0.048-0.567
		c-0.209,0.043-0.334,0.054-0.448,0.095c-4.649,1.676-9.229,3.511-13.621,5.793c-4.975,2.584-9.797,5.44-14.664,8.216
		c-0.207,0.118-0.382,0.29-0.562,0.43c0.018,0.227,0.018,0.392,0.045,0.553c0.488,2.828,1.916,5.118,4.107,6.918
		c1.613,1.325,3.05,2.81,4.41,4.385c2.149,2.488,4.695,4.449,7.757,5.699C185.312,155.469,185.652,155.602,186.079,155.772z
		 M335.322,370.054c-1.808-1.038-3.496-2.01-5.187-2.976c-3.747-2.138-7.465-4.33-11.367-6.185c-2.474-1.176-4.954-2.333-7.52-3.297
		c-0.22-0.083-0.454-0.129-0.645-0.182c-1.232,1.919-2.428,3.762-3.594,5.623c-0.165,0.264-0.239,0.614-0.263,0.931
		c-0.103,1.366-0.136,2.738-0.262,4.101c-0.17,1.84,0.192,3.539,1.094,5.152c0.607,1.085,1.16,2.203,1.68,3.333
		c0.248,0.537,0.556,1.002,0.944,1.444c1.013,1.154,2.052,2.292,2.968,3.521c1.388,1.863,2.676,3.799,4.014,5.7
		c0.233,0.331,0.372,0.75,0.833,0.935c0.174-0.049,0.377-0.091,0.568-0.163c1.681-0.633,3.229-1.506,4.675-2.57
		c1.381-1.016,2.542-2.263,3.663-3.542c1.289-1.47,2.632-2.876,4.153-4.111c1.104-0.896,2.035-1.962,2.764-3.182
		C334.655,373.22,335.181,371.748,335.322,370.054z M325.469,399.131c0.889-0.203,1.691-0.404,2.501-0.567
		c2.517-0.507,4.819-1.513,6.943-2.946c1.62-1.092,3.317-2.049,5.048-2.956c0.953-0.499,1.887-1.056,2.762-1.682
		c2.732-1.952,4.226-4.612,4.447-7.983c0.132-2.027,0.164-4.064,0.57-6.065c0.007-0.035-0.021-0.077-0.033-0.116l-9.857-5.282
		c-0.081,0-0.162,0-0.291,0c-0.068,0.26-0.144,0.535-0.212,0.812c-0.35,1.427-0.955,2.737-1.782,3.951
		c-0.563,0.827-1.178,1.607-1.903,2.299c-1.504,1.435-2.909,2.961-4.227,4.571c-0.682,0.834-1.411,1.639-2.188,2.383
		c-2.003,1.917-4.326,3.345-6.9,4.374c-0.33,0.132-0.743,0.155-0.968,0.598C321.253,393.42,323.199,396.303,325.469,399.131z
		 M166.362,139.06c-0.13,0.069-10.127,5.344-10.141,5.351c0.089,0.564,0.211,1.131,0.262,1.704c0.147,1.654,0.244,3.313,0.401,4.967
		c0.246,2.588,1.314,4.777,3.248,6.535c1.084,0.986,2.285,1.801,3.588,2.457c1.969,0.991,3.859,2.112,5.698,3.327
		c1.816,1.199,3.776,2.083,5.913,2.548c0.77,0.168,1.533,0.371,2.301,0.546c0.278,0.063,0.563,0.092,0.806,0.13
		c1.265-1.259,5.426-7.166,6.141-8.719c-0.293-0.133-0.583-0.278-0.883-0.399c-1.427-0.579-2.785-1.275-4.067-2.142
		c-2.122-1.434-3.914-3.202-5.551-5.156c-0.932-1.113-1.951-2.154-2.941-3.217c-0.425-0.456-0.898-0.867-1.313-1.331
		c-1.54-1.726-2.793-3.614-3.242-5.94C166.544,139.524,166.456,139.338,166.362,139.06z M247.793,169.029
		c-0.069-0.178-0.084-0.266-0.131-0.332c-2.052-2.929-3.888-5.993-5.693-9.076c-0.083-0.142-0.16-0.288-0.332-0.596
		c-0.256,0.362-0.359,0.547-0.498,0.699c-1.679,1.828-3.763,3.007-6.133,3.639c-2.329,0.621-4.618,1.345-6.889,2.151
		c-3.134,1.112-6.364,1.553-9.687,1.146c-0.645-0.079-1.293-0.142-2.065-0.226c0.195,3.615,0.41,7.122,0.986,10.672
		c0.897,0.271,1.776,0.51,2.638,0.801c2.605,0.88,5.28,1.076,7.998,0.841c1.495-0.129,2.989-0.149,4.482-0.026
		c1.457,0.12,2.903,0.082,4.351-0.118c2.855-0.394,5.193-1.671,6.914-4.007c0.542-0.735,1.058-1.491,1.555-2.258
		C246.035,171.188,246.78,170.039,247.793,169.029z M287.461,398.916c-0.06-0.008-0.102-0.022-0.142-0.018
		c-0.164,0.014-0.329,0.027-0.492,0.053c-3.855,0.618-7.623,0.289-11.273-1.107c-2.639-1.01-5.374-1.682-8.087-2.453
		c-0.157,0.071-0.315,0.127-0.458,0.208c-2.962,1.697-6.044,3.127-9.302,4.159c-0.379,0.12-0.67,0.301-0.88,0.637
		c-0.214,0.343-0.448,0.675-0.683,1.027c1.054,1.056,1.809,2.246,2.578,3.429c0.566,0.869,1.153,1.729,1.792,2.545
		c1.351,1.726,3.12,2.835,5.244,3.372c1.913,0.484,3.856,0.567,5.814,0.402c1.411-0.12,2.82-0.128,4.23,0.017
		c3.718,0.381,7.27-0.299,10.797-1.706c0.584-2.985,0.688-6.057,0.943-9.11C287.582,399.889,287.711,399.382,287.461,398.916z
		 M222.832,126.536c0.04,0.071,0.069,0.153,0.122,0.212c2.559,2.788,4.907,5.748,7.194,8.76c0.146,0.192,0.34,0.348,0.484,0.494
		c1.522-0.205,2.686-0.675,4.142-1.724c1.044-0.753,2.064-1.539,3.083-2.327c1.973-1.525,3.95-3.04,6.191-4.167
		c0.37-0.186,0.713-0.426,1.074-0.63c2.158-1.22,3.415-3.191,4.51-5.309c-0.369-0.393-0.836-0.469-1.252-0.638
		c-6.991-2.829-13.657-6.258-19.778-10.698c-0.114-0.083-0.272-0.103-0.391-0.145c-0.07,0.108-0.103,0.139-0.111,0.175
		c-0.028,0.121-0.057,0.242-0.069,0.365c-0.359,3.532-1.429,6.826-3.433,9.768C223.382,122.46,222.874,124.417,222.832,126.536z
		 M187.599,124.528c3.78-1.601,7.589-3.12,11.463-4.335c0.183-0.424,0.316-0.774,0.481-1.108c0.759-1.531,0.988-3.143,0.871-4.841
		c-0.235-3.423,0.424-6.697,1.754-9.848c0.126-0.297,0.224-0.606,0.392-1.063c-4.127,0.533-8.148,0.518-12.167,0.418
		c-4.067-0.101-8.103-0.596-12.131-1.16c-0.058,0.187-0.12,0.302-0.126,0.42c-0.127,2.586,0.246,5.056,1.693,7.277
		c0.204,0.313,0.396,0.635,0.57,0.966c0.582,1.1,1.183,2.192,1.719,3.314c0.448,0.936,0.808,1.912,1.22,2.866
		c0.593,1.372,1.156,2.759,1.809,4.101C185.712,122.696,186.47,123.732,187.599,124.528z M311.785,354.984
		c1.244,0.651,3.813,1.688,4.675,1.899c1.205-0.935,1.984-1.937,2.736-3.62c0.524-1.173,1.01-2.364,1.498-3.552
		c0.913-2.226,1.826-4.449,3.157-6.473c0.295-0.449,0.52-0.944,0.79-1.411c1.175-2.035,1.264-4.257,1.129-6.517
		c-0.004-0.072-0.079-0.14-0.142-0.246c-1.089,0.133-2.194,0.271-3.3,0.404c-1.152,0.139-2.303,0.293-3.458,0.404
		c-1.115,0.107-2.235,0.155-3.35,0.252c-1.143,0.099-2.304-0.027-3.405,0.193c-0.053,0.15-0.106,0.227-0.104,0.302
		c0.037,1.658-0.002,3.322,0.143,4.971c0.174,1.981,0.511,3.947,0.764,5.921c0.169,1.323,0.165,2.641-0.069,3.964
		C312.637,352.666,312.256,353.799,311.785,354.984z M286.673,152.906c-1.465,0.43-2.827,0.912-4.182,1.418
		c-1.816,0.678-3.372,1.758-4.812,3.027c-0.212,0.187-0.387,0.417-0.572,0.62c0.076,0.157,0.123,0.271,0.183,0.377
		c0.122,0.216,0.245,0.433,0.379,0.642c2.56,3.998,5.592,7.614,8.923,10.987c0.106,0.108,0.261,0.167,0.374,0.237
		c2.525-1.786,7.288-6.496,8.266-8.194C292.241,159.138,289.248,156.222,286.673,152.906z M373.367,343.632
		c-0.662,0.741-1.349,1.457-1.974,2.224c-0.706,0.867-1.4,1.751-2.018,2.681c-0.829,1.246-1.362,2.632-1.734,4.052
		c2.393,1.789,12.001,5.534,14.654,5.735c1.071-1.964,2.966-8.703,3.113-11.136c-1.951-0.612-3.985-0.997-5.955-1.605
		C377.475,344.971,375.51,344.32,373.367,343.632z M121.624,126.036c5.159-1.433,10.05-3.171,14.651-5.725
		c-0.033-0.271-0.029-0.48-0.087-0.67c-0.398-1.315-0.935-2.566-1.69-3.722c-0.979-1.499-2.18-2.818-3.368-4.146
		c-0.187-0.209-0.41-0.387-0.649-0.61c-3.89,1.508-7.902,2.508-12.04,3.576C119.141,118.6,120.196,122.278,121.624,126.036z
		 M140.748,133.001c-0.396-0.755-0.817-1.513-1.196-2.292c-0.363-0.745-0.714-1.499-1.012-2.272
		c-0.312-0.811-0.553-1.65-0.828-2.476c-0.269-0.809-0.331-1.682-0.706-2.573c-4.631,2.229-9.305,4.073-14.311,4.927
		c0.597,2.354,4.575,9.389,6.044,10.384C131.178,138.05,139.245,134.233,140.748,133.001z M274.435,177.763
		c0.086,0,0.173,0.02,0.245-0.004c0.236-0.077,0.469-0.165,0.699-0.259c3.319-1.368,6.337-3.252,9.197-5.401
		c0.113-0.085,0.173-0.238,0.275-0.385c-2.04-1.564-3.699-3.417-5.336-5.292c-1.659-1.9-3.118-3.954-4.612-6.085
		c-0.626,0.487-1.022,1.074-1.527,1.548c-0.484,0.454-0.956,0.922-1.458,1.355c-0.533,0.46-1.085,0.901-1.65,1.322
		c-0.531,0.396-1.085,0.763-1.639,1.129c-0.58,0.383-1.172,0.748-1.742,1.111C267.575,168.62,272.569,175.847,274.435,177.763z
		 M375.16,371.136c1.809-1.586,5.427-7.764,6.089-10.38c-0.847-0.172-1.701-0.312-2.536-0.523c-3.752-0.947-7.361-2.289-10.84-3.983
		c-0.286-0.139-0.589-0.244-0.866-0.358c-0.093,0.124-0.159,0.182-0.186,0.255c-0.057,0.155-0.107,0.315-0.137,0.477
		c-0.51,2.722-1.575,5.234-2.878,7.659c-0.207,0.385-0.54,0.729-0.539,1.27C367.101,367.738,371.094,369.543,375.16,371.136z
		 M303.027,132.498c1.11,0.775,2.067,1.427,3.007,2.104c0.978,0.704,1.946,1.421,2.904,2.151c0.925,0.705,1.84,1.424,2.742,2.158
		c0.902,0.734,1.795,1.481,2.671,2.246c0.876,0.765,1.74,1.545,2.585,2.345c0.874,0.828,1.715,1.691,2.577,2.533
		c0.824,0.804,1.509,1.746,2.458,2.568c0.089-0.328,0.18-0.558,0.212-0.796c0.247-1.836,0.786-3.568,1.827-5.115
		c0.286-0.425,0.312-0.816,0.134-1.283c-1.953-5.134-5.545-8.371-10.967-9.483c-2.429-0.498-4.878-0.437-7.32-0.136
		C304.969,131.899,304.06,132.026,303.027,132.498z M236.222,400.661c-1.141-0.345-2.288-0.662-3.414-1.041
		c-1.139-0.384-2.27-0.801-3.382-1.257c-1.105-0.453-2.182-0.972-3.274-1.463c-1.14,1.304-2.224,2.559-3.325,3.799
		c-1.127,1.27-2.37,2.423-3.722,3.484c0.101,0.14,0.152,0.262,0.243,0.331c2.933,2.201,6.024,4.131,9.437,5.509
		c0.257,0.104,0.537,0.152,0.772,0.217C231.948,407.46,235.64,402.161,236.222,400.661z M344.494,392.791
		c1.029,1.524,1.952,2.9,2.884,4.27c1.096,1.613,2.195,3.224,3.305,4.827c0.153,0.221,0.38,0.391,0.588,0.601
		c1.687-1.295,3.082-2.757,4.309-4.394c1.449-1.933,2.367-4.081,2.72-6.468c0.083-0.564,0.218-1.14,0-1.737
		c-1.054-0.27-2.096-0.537-3.138-0.804c-1.004-0.257-2.006-0.524-3.013-0.77c-1.033-0.252-2.016-0.694-3.103-0.91
		C348.016,389.606,346.485,391.322,344.494,392.791z M145.589,157.544c-0.032,2.044,0.506,3.994,1.223,5.483
		c1.322,2.746,3.308,4.947,5.665,6.836c0.088,0.071,0.222,0.085,0.389,0.146c1.203-1.532,2.224-3.191,3.323-4.795
		c1.096-1.6,2.22-3.182,3.245-4.913c-1.971-1.454-3.536-3.188-4.515-5.366C154.833,154.959,145.66,157.524,145.589,157.544z
		 M243.588,178.753c-1.879,1.303-3.937,2.011-6.145,2.315c-0.148,0.02-0.286,0.119-0.465,0.197
		c0.283,3.718,0.561,7.395,0.848,11.071c0.012,0.152,0.105,0.298,0.185,0.516c0.429-0.045,0.838-0.058,1.235-0.136
		c0.609-0.12,1.216-0.26,1.812-0.433c2.08-0.605,4.075-1.398,5.829-2.708c1.439-1.075,2.65-2.354,3.571-3.961
		C248.18,183.339,245.93,181.092,243.588,178.753z M260.328,411.161c-0.556,0.597-1.044,1.155-1.568,1.677
		c-1.557,1.55-3.13,3.083-4.69,4.629c-0.197,0.195-0.356,0.429-0.517,0.626c1.029,1.737,2.386,3.216,3.808,4.121
		c2.446,1.557,5.126,2.5,7.973,2.989c0.225,0.039,0.464-0.008,0.765-0.017c0.371-3.664,0.591-7.257,0.808-10.849
		c0.014-0.239-0.032-0.481-0.054-0.775C264.491,413.238,262.297,412.558,260.328,411.161z M287.751,396.254
		c0.112-1.412,0.204-2.772,0.332-4.13c0.132-1.402,0.327-2.799,0.443-4.203c0.111-1.339,0.57-2.631,0.61-4.098
		c-0.923,0.55-1.71,1.075-2.547,1.506c-2.356,1.214-4.713,2.431-7.106,3.57c-2.734,1.302-5.384,2.755-8.002,4.271
		c-0.242,0.14-0.472,0.301-0.843,0.54c0.428,0.127,0.686,0.238,0.954,0.278c1.398,0.207,2.749,0.59,4.091,1.024
		c1.221,0.395,2.444,0.789,3.685,1.112c2.395,0.624,4.83,0.709,7.279,0.384C287.009,396.462,287.361,396.347,287.751,396.254z
		 M255.478,335.349c0.012-0.001,0.024-0.002,0.036-0.003c-0.08-0.701-0.169-1.401-0.238-2.103c-0.069-0.702-0.121-1.407-0.177-2.11
		c-0.063-0.787-0.123-1.574-0.182-2.361c-0.078-1.043-0.273-2.06-0.714-3.014c-0.3-0.649-0.702-1.212-1.358-1.571
		c-1.004-0.549-3.925,0.059-4.498,1.03c-0.084,0.143-0.187,0.274-0.276,0.414c-0.569,0.9-0.845,1.878-0.868,2.947
		c-0.03,1.37-0.133,2.738-0.167,4.108c-0.034,1.411-0.025,2.824-0.028,4.236c-0.001,0.248,0.023,0.498,0.051,0.745
		c0.073,0.633,0.408,1.087,0.994,1.323c0.303,0.122,0.631,0.226,0.954,0.25c1.641,0.123,3.238-0.118,4.753-0.754
		c1.088-0.456,1.695-1.301,1.718-2.514C255.481,335.764,255.478,335.556,255.478,335.349z M243.869,332.682
		c-0.019,0-0.038,0.001-0.057,0.001c-0.046-1.37-0.087-2.74-0.142-4.109c-0.015-0.372-0.037-0.749-0.109-1.114
		c-0.428-2.162-1.738-3.309-3.937-3.466c-0.166-0.012-0.332-0.007-0.498-0.014c-0.867-0.041-1.536,0.324-2.004,1.033
		c-0.249,0.378-0.506,0.781-0.623,1.21c-0.228,0.837-0.421,1.693-0.52,2.553c-0.199,1.732-0.333,3.471-0.478,5.209
		c-0.055,0.661-0.094,1.327-0.091,1.99c0.005,1.213,0.628,2.057,1.716,2.512c1.516,0.634,3.113,0.878,4.754,0.756
		c1.161-0.087,2.003-0.689,1.992-2.077C243.86,335.672,243.869,334.177,243.869,332.682z M355.382,377.214
		c2.537,0.857,5.066,1.416,7.722,1.224c2.678-0.194,5.09-1.121,7.29-2.63c1.69-1.16,2.468-1.898,2.799-2.59
		c-1.994-0.811-4.013-1.572-5.981-2.449c-1.958-0.873-3.863-1.864-5.772-2.794C358.527,371.097,355.675,374.991,355.382,377.214z
		 M271.684,178.626c-0.983-1.22-1.916-2.331-2.795-3.483c-0.856-1.121-1.662-2.28-2.482-3.428c-0.837-1.173-1.531-2.446-2.425-3.661
		c-1.832,0.723-3.615,1.394-5.371,2.13c-1.342,0.563-2.6,1.294-3.751,2.193c-0.249,0.194-0.461,0.436-0.682,0.65
		C258.542,178.531,264.689,180.841,271.684,178.626z M249.748,405.471c-0.093-0.113-0.175-0.258-0.296-0.353
		c-0.457-0.357-0.911-0.723-1.396-1.041c-1.533-1.009-3.229-1.679-4.918-2.377c-1.198-0.496-2.406-0.475-3.662-0.44
		c-0.563,0.861-1.096,1.699-1.654,2.521c-0.582,0.858-1.173,1.711-1.786,2.547c-0.589,0.802-1.231,1.566-1.816,2.371
		c-0.598,0.822-1.359,1.523-1.912,2.415C238.93,413.141,245.256,411.306,249.748,405.471z M148.656,144.752
		c-0.777-2.592-4.008-7.336-6.168-9.13c-1.926,0.934-3.841,1.923-5.807,2.799c-1.951,0.87-3.952,1.627-5.936,2.435
		c1.272,1.924,5.051,4.065,7.463,4.701C141.762,146.494,145.185,145.933,148.656,144.752z M217.137,402.675
		c2.139-2.11,4.117-4.391,5.992-6.766c0.115-0.145,0.182-0.327,0.307-0.558c-3.459-1.699-6.594-3.816-9.973-5.413
		c-1.219,0.986-4.255,4.042-4.676,4.695C210.195,396.667,215.364,401.664,217.137,402.675z M348.568,404.242
		c-2.192-3.269-4.334-6.465-6.479-9.66c-0.022-0.032-0.063-0.055-0.099-0.074c-0.036-0.019-0.077-0.027-0.2-0.066
		c-1.515,0.796-3.055,1.661-4.524,2.765c1.048,3.163,2.058,6.303,3.43,9.366C343.581,406.491,346.173,405.685,348.568,404.242z
		 M228.581,181.334c-0.779,2.749-1.767,8.651-1.667,9.872c1.926,1.121,5.034,1.896,7.266,1.867c0.225-0.003,0.449-0.087,0.626-0.123
		c-0.285-3.885-0.563-7.685-0.843-11.486c-0.003-0.039-0.026-0.08-0.05-0.113c-0.023-0.031-0.06-0.053-0.177-0.151
		C232.093,181.071,230.367,181.107,228.581,181.334z M166.715,164.756c-1.535-1.114-3.063-2-4.636-2.805
		c-2.246,3.299-4.455,6.542-6.707,9.848c2.464,1.439,5.056,2.266,7.917,2.32C164.646,171.067,165.634,167.955,166.715,164.756z
		 M269.963,413.752c-0.054,1.212-0.074,2.374-0.165,3.529c-0.196,2.482-0.431,4.96-0.642,7.44c-0.02,0.231-0.122,0.495,0.124,0.683
		c1.419,0.107,2.934-0.05,4.536-0.523c1.143-0.338,2.291-0.681,3.353-1.385c-0.39-3.273-1.034-6.472-1.706-9.631
		C273.946,413.535,271.399,413.478,269.963,413.752z M296.598,160.145c0.144-0.133,0.251-0.197,0.311-0.291
		c1.987-3.113,2.352-6.395,1.008-9.849c-0.713-1.833-1.772-3.46-3.024-4.965c-0.086-0.103-0.255-0.138-0.376-0.2
		c-0.069,0.101-0.099,0.133-0.114,0.17c-0.03,0.076-0.058,0.154-0.077,0.234c-0.61,2.636-2.069,4.663-4.361,6.098
		c-0.166,0.104-0.295,0.267-0.503,0.46C291.83,154.623,294.136,157.431,296.598,160.145z M376.234,332.576
		c0.879,5.448,0.342,5.231-0.899,8.558c0.284,0.135,0.566,0.3,0.867,0.406c2.964,1.049,5.931,2.091,8.9,3.125
		c0.178,0.062,0.387,0.038,0.624,0.058c0.148-1.401-0.008-2.709-0.366-3.988c-0.576-2.057-1.749-3.736-3.378-5.1
		c-1.541-1.29-3.298-2.206-5.164-2.925C376.644,332.642,376.449,332.624,376.234,332.576z M127.799,100.137
		c-0.202,0.021-0.323,0.009-0.425,0.047c-1.526,0.557-2.969,1.279-4.317,2.188c-1.288,0.869-2.377,1.94-3.228,3.242
		c-1.323,2.022-1.774,4.244-1.544,6.693c0.256-0.035,0.461-0.036,0.647-0.095c0.434-0.137,0.859-0.304,1.289-0.454
		c2.386-0.835,4.775-1.663,7.158-2.51c0.451-0.16,0.951-0.251,1.315-0.673c-0.722-1.294-1.215-2.652-1.401-4.109
		C127.107,103.007,127.538,101.605,127.799,100.137z M258.703,337.124c0.99,0.396,1.985,0.447,2.956,0.239
		c2.051-0.439,3.068-1.404,3.263-3.628c0.146-1.657,0.196-3.31-0.034-4.958c-0.091-0.651-0.234-1.308-0.458-1.923
		c-0.399-1.096-1.245-1.618-2.406-1.577c-0.247,0.009-0.493,0.056-0.737,0.1c-0.814,0.148-1.629,0.294-2.439,0.461
		c-0.222,0.046-0.431,0.159-0.637,0.238C259.39,329.719,259.047,333.35,258.703,337.124z M232.153,337.132
		c0.012-0.186,0.039-0.308,0.023-0.423c-0.333-2.388-0.435-4.786-0.204-7.185c0.091-0.941,0.342-1.867,0.512-2.801
		c0.042-0.229,0.26-0.434,0.04-0.794c-1.138-0.207-2.346-0.485-3.569-0.631c-1.214-0.145-2.069,0.444-2.523,1.577
		c-0.092,0.229-0.167,0.468-0.222,0.709c-0.519,2.295-0.471,4.607-0.136,6.915c0.128,0.884,0.543,1.653,1.34,2.148
		C228.916,337.579,230.495,337.685,232.153,337.132z M358.255,386.97c-0.12-2.484-1.091-4.721-1.838-6.923
		c-2.084-0.74-4.069-1.446-6.058-2.143c-0.102-0.036-0.235,0.014-0.412,0.029c0,0.593-0.004,1.169,0.001,1.745
		c0.004,0.539,0.025,1.077,0.024,1.616c-0.001,0.58-0.036,1.16-0.025,1.74c0.011,0.571-0.181,1.147,0.001,1.701
		C351.763,385.499,357.071,386.936,358.255,386.97z M249.24,170.937c-0.56,0.621-0.817,1.322-1.178,1.958
		c-0.388,0.684-0.764,1.377-1.175,2.047c-0.385,0.628-0.811,1.23-1.202,1.82c1.093,1.517,5.079,5.548,6.157,6.228
		c1.069-2.237,1.39-4.649,1.821-6.971c-0.793-0.877-1.526-1.664-2.232-2.476C250.703,172.707,250.003,171.847,249.24,170.937z
		 M254.745,403.364c-0.762,0.912-1.461,1.776-2.189,2.614c-0.73,0.839-1.489,1.653-2.27,2.516c0.281,1.356,0.525,2.699,0.845,4.023
		c0.204,0.842,0.512,1.659,0.795,2.48c0.057,0.167,0.209,0.301,0.351,0.496c2.022-1.969,4.017-3.834,5.79-5.917
		c0.099-0.116,0.142-0.279,0.188-0.373c-0.631-1.006-1.229-1.949-1.817-2.898C255.859,405.37,255.483,404.313,254.745,403.364z
		 M147.539,147.583c-0.714,2.27-1.728,4.464-1.838,7.038c2.906-0.751,5.723-1.35,8.445-2.415c-0.053-0.645-0.139-1.221-0.141-1.797
		c-0.004-1.369,0.04-2.738,0.047-4.108c0.002-0.308,0.131-0.678-0.243-0.87C151.755,146.136,149.719,146.835,147.539,147.583z
		 M138.632,101.018c-1.54,0.013-2.732,0.29-3.75,1.097c-1.573,1.246-1.507,3.117,0.159,4.252c0.371,0.253,0.79,0.464,1.216,0.605
		c1.386,0.459,2.767,0.396,4.126-0.147c0.586-0.234,1.105-0.565,1.531-1.03c1.019-1.112,0.993-2.522-0.136-3.515
		c-0.454-0.399-1.022-0.713-1.59-0.929C139.618,101.133,138.984,101.088,138.632,101.018z M260.058,339.97
		c0.1,1.482,0.294,2.809,0.249,4.128c-0.045,1.311-0.332,2.614-0.524,4.003c0.455,0.229,0.922,0.491,1.411,0.704
		c0.576,0.251,1.158,0.195,1.649-0.195c0.386-0.307,0.784-0.642,1.046-1.049c0.402-0.622,0.757-1.293,1.017-1.986
		c0.755-2.012,0.931-4.121,0.915-6.251c-0.001-0.095-0.104-0.189-0.197-0.348C263.895,340.037,262.025,340.219,260.058,339.97z
		 M225.061,339.078c-0.073,1.648,0.119,3.209,0.415,4.761c0.211,1.109,0.575,2.166,1.127,3.153c0.348,0.623,0.783,1.174,1.373,1.59
		c0.51,0.36,1.063,0.481,1.65,0.247c0.534-0.213,1.084-0.414,1.566-0.892c-0.782-2.57-0.805-5.197-0.272-7.869
		c-1.016-0.033-1.973,0.035-2.892-0.121C227.065,339.784,226.139,339.405,225.061,339.078z M366.169,339.712
		c0.667,0.011,1.59-0.208,2.437-0.692c2.115-1.207,2.156-3.519,0.055-4.753c-1.727-1.015-3.559-1.08-5.38-0.272
		c-0.513,0.227-0.989,0.623-1.37,1.043c-0.709,0.78-0.745,1.88-0.184,2.773c0.315,0.503,0.751,0.881,1.269,1.169
		C363.886,339.477,364.842,339.712,366.169,339.712z M282.162,139.552c-0.243,0.036-0.576,0.06-0.895,0.138
		c-1.368,0.334-2.126,1.554-1.803,2.928c0.084,0.356,0.227,0.713,0.413,1.028c0.816,1.382,2.028,2.273,3.558,2.714
		c0.635,0.183,1.295,0.24,1.965,0.13c1.876-0.309,2.708-1.819,1.975-3.585C286.666,141.198,284.575,139.598,282.162,139.552z
		 M251.693,341.639c-0.863-0.023-1.641-0.016-2.415-0.071c-0.815-0.058-1.626-0.181-2.496-0.158
		c-0.157,1.135-0.025,2.206-0.057,3.27c-0.032,1.075-0.02,2.152-0.058,3.227c-0.037,1.064-0.113,2.127-0.173,3.213
		c1.24,0.329,2.218,0.055,2.91-0.938c0.374-0.537,0.674-1.142,0.918-1.751c0.79-1.975,1.13-4.056,1.368-6.157
		C251.712,342.08,251.693,341.881,251.693,341.639z M244.354,351.104c0-0.363,0.013-0.69-0.003-1.016
		c-0.041-0.826-0.125-1.651-0.138-2.477c-0.029-1.82-0.021-3.642-0.039-5.462c-0.002-0.237-0.062-0.473-0.104-0.78
		c-0.585,0.042-1.117,0.076-1.65,0.118c-0.536,0.042-1.071,0.092-1.607,0.136c-0.521,0.043-1.055-0.101-1.574,0.026
		c-0.027,0.188-0.07,0.31-0.056,0.425c0.083,0.698,0.168,1.396,0.272,2.091c0.233,1.559,0.586,3.092,1.225,4.538
		c0.265,0.599,0.581,1.2,0.991,1.705C242.365,351.263,243.296,351.45,244.354,351.104z M278.652,413.883
		c0.008,0.168-0.001,0.33,0.027,0.485c0.408,2.285,0.819,4.57,1.239,6.853c0.026,0.14,0.128,0.266,0.2,0.41
		c2.842-2.039,5.718-6.776,5.687-9.393c-1.164,0.34-2.296,0.729-3.456,0.995C281.143,413.509,279.911,413.667,278.652,413.883z
		 M222.87,335.244c-0.375-3.172-0.507-6.21,0.593-9.221c-0.85-0.218-1.601-0.448-2.368-0.597c-0.776-0.151-1.148,0.046-1.521,0.751
		c-0.192,0.363-0.349,0.756-0.451,1.153c-0.483,1.87-0.477,3.775-0.306,5.68c0.056,0.623,0.264,1.234,0.794,1.635
		C220.548,335.353,221.58,335.633,222.87,335.244z M268.032,335.244c0.768,0.276,1.4,0.198,2.052,0.019
		c1.175-0.322,1.871-1.072,1.983-2.269c0.178-1.904,0.183-3.811-0.316-5.678c-0.126-0.473-0.354-0.926-0.587-1.361
		c-0.236-0.44-0.646-0.615-1.15-0.578c-0.59,0.044-1.909,0.451-2.566,0.812C268.573,329.1,268.331,332.118,268.032,335.244z
		 M169.456,166.347c-0.927,2.579-1.804,5.019-2.684,7.469c2.724,0.14,7.848-2.574,9.758-5.198
		C174.13,168.053,171.728,167.594,169.456,166.347z M337.225,406.304c-0.917-2.542-1.795-4.976-2.674-7.411
		c-1.206,0.447-2.312,0.915-3.454,1.265c-1.175,0.361-2.386,0.607-3.61,0.911C329.217,403.482,333.73,406.126,337.225,406.304z
		 M225.327,181.491c-1.624-0.328-3.129-0.609-4.621-0.945c-0.685-0.154-1.343-0.424-2.016-0.632
		c-0.188-0.058-0.391-0.16-0.646,0.081c0.913,3.686,2.752,6.807,5.866,9.285C224.397,186.599,224.862,184.044,225.327,181.491z
		 M360.414,351.127c0.953,0.004,2.017-0.273,2.738-0.687c0.587-0.337,1.088-0.77,1.425-1.361c0.567-0.994,0.348-2.105-0.596-2.755
		c-0.401-0.276-0.878-0.506-1.352-0.597c-1.165-0.224-2.315-0.118-3.398,0.432c-0.565,0.287-1.055,0.662-1.435,1.17
		c-0.853,1.14-0.617,2.459,0.591,3.215C359.038,350.95,359.767,351.104,360.414,351.127z M142.145,113.183
		c-0.157,0.017-0.496,0.017-0.816,0.096c-1.011,0.25-1.905,0.695-2.157,1.816c-0.25,1.113,0.297,1.949,1.154,2.565
		c1.356,0.975,2.864,1.292,4.488,0.796c2.043-0.625,2.498-2.6,0.932-4.039c-0.272-0.25-0.59-0.46-0.913-0.641
		C144.056,113.34,143.207,113.169,142.145,113.183z M274.475,153.686c0.058-0.004,0.353,0.004,0.637-0.049
		c0.946-0.175,1.742-0.586,2.087-1.556c0.333-0.937-0.035-1.737-0.657-2.395c-1.292-1.367-2.897-1.917-4.751-1.523
		c-1.911,0.406-2.547,2.173-1.346,3.7c0.302,0.385,0.691,0.725,1.098,0.998C272.351,153.404,273.258,153.692,274.475,153.686z
		 M267.43,347.345c0.994,0.099,1.793-0.095,2.433-0.803c0.677-0.749,1.187-1.602,1.548-2.54c0.721-1.874,1.136-3.817,1.248-5.823
		c0.011-0.198-0.036-0.4-0.059-0.623c-0.618,0.133-1.177,0.304-1.747,0.361c-0.608,0.061-1.226,0.014-1.841,0.014
		c-0.118,1.654-0.207,3.219-0.347,4.778C268.522,344.289,267.951,345.767,267.43,347.345z M222.022,337.926
		c-1.363,0.087-2.545,0.004-3.752-0.406c-0.02,0.285-0.064,0.489-0.043,0.685c0.089,0.825,0.152,1.657,0.308,2.471
		c0.266,1.387,0.61,2.759,1.25,4.033c0.375,0.745,0.812,1.454,1.434,2.022c0.619,0.565,1.342,0.745,2.259,0.553
		C222.235,344.305,221.824,341.244,222.022,337.926z M233.808,339.843c-0.278,0.411-0.295,0.87-0.305,1.317
		c-0.019,0.91-0.054,1.824,0.009,2.73c0.112,1.619,0.463,3.195,1.141,4.678c0.203,0.445,0.482,0.866,0.785,1.251
		c0.285,0.362,0.673,0.62,1.173,0.602c0.483-0.018,0.862-0.231,1.126-0.585c-0.345-1.495-0.748-2.93-0.992-4.391
		c-0.243-1.458-0.327-2.942-0.481-4.411C235.444,340.636,234.632,340.242,233.808,339.843z M257.145,339.804
		c-0.949,0.466-1.788,0.878-2.627,1.29c0.003,3.017-0.538,5.89-1.427,8.661c0.997,0.868,1.625,0.89,2.372,0.039
		c0.347-0.396,0.629-0.877,0.834-1.365c1.05-2.5,1.294-5.116,1.038-7.794C257.311,340.393,257.227,340.157,257.145,339.804z
		 M352.68,368.832c0.913-0.088,1.805-0.233,2.529-0.867c0.965-0.846,0.96-2.046-0.007-2.896c-1.29-1.135-3.613-1.187-4.945-0.111
		c-1.1,0.888-1.102,2.163-0.002,3.048C350.962,368.575,351.809,368.731,352.68,368.832z M151.049,136.425
		c1.181,0.003,2.221-0.365,2.824-0.934c0.899-0.849,0.878-2.008-0.05-2.828c-1.298-1.147-3.788-1.125-5.069,0.044
		c-0.998,0.911-0.945,2.167,0.14,2.984C149.582,136.21,150.383,136.402,151.049,136.425z M256.485,159.896
		c-0.246,0.012-0.371,0.01-0.494,0.025c-1.526,0.179-2.213,1.391-1.59,2.8c0.607,1.373,2.344,2.453,3.812,2.371
		c1.709-0.096,2.509-1.484,1.69-2.99C259.146,160.712,257.91,160.048,256.485,159.896z M142.889,127.993
		c-0.005,1.305,0.915,2.091,2.192,1.872c1.552-0.266,2.977-1.656,3.265-3.214c0.052-0.279,0.056-0.583,0.008-0.862
		c-0.161-0.926-0.927-1.519-1.865-1.481C144.715,124.378,142.896,126.24,142.889,127.993z M267.909,159.801
		c-0.006-0.977-0.222-1.718-0.714-2.43c-0.163-0.237-0.35-0.466-0.563-0.658c-1.173-1.061-2.672-0.7-3.148,0.805
		c-0.439,1.39-0.187,2.709,0.708,3.874c0.198,0.258,0.453,0.492,0.724,0.672c0.979,0.65,2.074,0.362,2.638-0.674
		C267.84,160.868,267.938,160.301,267.909,159.801z M355.602,358.617c-0.001,2.025,2.013,3.656,3.729,3.655
		c1.201-0.001,1.956-0.993,1.752-2.207c-0.266-1.584-1.775-3.055-3.361-3.277C356.49,356.616,355.608,357.376,355.602,358.617z
		 M214.315,324.801c-0.465,0.267-0.562,0.692-0.684,1.076c-0.505,1.594-0.735,3.227-0.586,4.901
		c0.022,0.246,0.067,0.493,0.131,0.731c0.324,1.203,1.067,1.761,2.515,1.853c0.01-0.901-0.012-1.802,0.04-2.698
		c0.053-0.907,0.114-1.823,0.294-2.71c0.179-0.88,0.51-1.729,0.79-2.641C215.956,325.136,215.111,324.963,214.315,324.801z
		 M273.95,325.325c1.362,2.619,1.232,5.328,1.223,8.012c1.267-0.001,2.096-0.516,2.442-1.543c0.131-0.387,0.199-0.805,0.233-1.214
		c0.128-1.547-0.102-3.059-0.542-4.538c-0.126-0.424-0.223-0.892-0.712-1.237C275.813,324.959,274.97,325.124,273.95,325.325z
		 M274.317,344.225c1.356,0.056,2.186-0.559,2.825-1.504c0.47-0.695,0.765-1.466,0.971-2.276c0.352-1.387,0.285-2.799,0.248-4.208
		c-0.006-0.227,0.051-0.495-0.251-0.673c-0.369,0.098-0.763,0.221-1.166,0.304c-0.393,0.08-0.795,0.119-1.166,0.172
		c-0.161,1.435-0.245,2.803-0.484,4.143C275.056,341.516,274.663,342.822,274.317,344.225z M216.615,344.229
		c-0.274-0.958-0.56-1.815-0.759-2.691c-0.211-0.928-0.375-1.871-0.496-2.815c-0.115-0.894-0.148-1.798-0.214-2.659
		c-0.899-0.172-1.704-0.326-2.602-0.497c-0.043,1.618-0.163,3.183,0.196,4.742c0.179,0.775,0.445,1.514,0.857,2.19
		C214.235,343.545,215.084,344.275,216.615,344.229z M205.36,385.961c-0.23,1.682,0.128,3.077,0.702,4.411
		c0.33,0.767,0.596,1.609,1.359,2.206c1.127-1.318,2.265-2.551,3.355-3.92C208.962,387.754,207.238,386.896,205.36,385.961z
		 M282.848,323.449c0.4,0.438,0.726,0.758,1.008,1.112c0.309,0.387,0.61,0.788,0.856,1.216c0.225,0.392,0.406,0.818,0.544,1.249
		c0.138,0.432,0.233,0.884,0.283,1.335c0.054,0.492,0.025,0.992,0.05,1.488c0.021,0.423-0.214,0.844-0.056,1.384
		c0.214-0.165,0.363-0.239,0.457-0.358c0.369-0.468,0.54-1.017,0.605-1.605c0.171-1.533,0.139-3.068-0.074-4.588
		c-0.096-0.686-0.374-1.35-0.608-2.011c-0.073-0.206-0.273-0.368-0.428-0.567C284.578,322.567,283.736,322.996,282.848,323.449z
		 M205.357,322.085c-0.667,0.821-0.884,1.708-1.001,2.602c-0.2,1.522-0.239,3.056-0.067,4.588c0.066,0.588,0.233,1.14,0.611,1.601
		c0.105,0.128,0.301,0.181,0.547,0.321c-0.061-0.58-0.137-1.028-0.149-1.477c-0.013-0.495-0.001-0.997,0.063-1.487
		c0.058-0.449,0.167-0.898,0.314-1.327c0.146-0.428,0.334-0.851,0.565-1.239c0.253-0.424,0.575-0.807,0.869-1.206
		c0.256-0.347,0.696-0.534,0.961-0.995C207.142,322.994,206.3,322.565,205.357,322.085z M280.106,325.216
		c0.232,1.227,0.53,2.349,0.636,3.487c0.107,1.141,0.023,2.299,0.023,3.449c1.25-0.021,2.02-0.73,2.08-1.967
		c0.062-1.274-0.256-2.475-0.88-3.581C281.567,325.899,280.935,325.473,280.106,325.216z M210.19,332.185
		c-0.047-0.672-0.112-1.244-0.121-1.818c-0.009-0.58,0.009-1.163,0.067-1.74c0.058-0.577,0.19-1.146,0.271-1.721
		c0.077-0.546,0.425-1.044,0.357-1.657c-0.961,0.383-1.364,0.608-1.683,1.106c-0.785,1.224-1.156,2.577-1.025,4.028
		C208.155,331.47,208.876,332.071,210.19,332.185z M280.931,340.174c0.208-0.02,0.379-0.004,0.524-0.057
		c0.962-0.345,1.418-1.113,1.603-2.053c0.111-0.567,0.179-1.154,0.164-1.73c-0.02-0.77,0.037-1.558-0.207-2.335
		c-0.37,0.081-0.694,0.143-1.013,0.223c-0.307,0.077-0.609,0.173-0.9,0.256c0,1.001,0.022,1.911-0.006,2.819
		C281.067,338.242,280.99,339.184,280.931,340.174z M207.891,334.006c-0.294,1.27-0.343,3.18-0.03,4.212
		c0.14,0.464,0.384,0.923,0.682,1.305c0.326,0.418,0.778,0.723,1.443,0.603c-0.065-0.646-0.153-1.256-0.181-1.869
		c-0.031-0.662,0.003-1.326-0.009-1.989c-0.011-0.607,0.129-1.225-0.073-1.861C209.086,334.268,208.488,334.137,207.891,334.006z
		 M150.624,121.357c-0.012-0.852-0.626-1.831-1.378-2.212c-0.877-0.444-1.692-0.011-1.807,0.96c-0.111,0.931,0.477,2.061,1.3,2.499
		c0.91,0.484,1.775,0.025,1.884-1.001C150.631,121.522,150.624,121.439,150.624,121.357z M267.653,151.766
		c0.012-0.727-0.387-1.166-1.055-1.279c-1.038-0.176-2.432,0.747-2.677,1.772c-0.175,0.734,0.217,1.314,0.967,1.43
		c1.034,0.16,2.236-0.489,2.639-1.441C267.606,152.063,267.631,151.854,267.653,151.766z M356.548,352.796
		c0.002-0.546-0.249-1.067-0.639-1.258c-0.497-0.244-0.97-0.128-1.393,0.18c-0.827,0.604-1.238,1.415-1.122,2.451
		c0.086,0.769,0.64,1.184,1.376,1.026c0.234-0.05,0.477-0.149,0.671-0.288C356.156,354.392,356.494,353.664,356.548,352.796z
		 M350.53,373.831c0.695,0.005,1.11-0.123,1.437-0.394c0.427-0.352,0.533-0.857,0.28-1.333c-0.565-1.062-2.271-1.487-3.259-0.811
		c-0.547,0.374-0.677,0.962-0.311,1.512C349.153,373.521,349.865,373.794,350.53,373.831z M153.015,141.444
		c1.036,0,1.761-0.322,2.183-0.874c0.458-0.597,0.337-1.325-0.283-1.703c-0.915-0.557-2.53-0.187-3.104,0.711
		c-0.37,0.58-0.232,1.267,0.372,1.589C152.499,141.335,152.871,141.398,153.015,141.444z M254.002,167.058
		c0.011-1.201-1.268-2.353-2.473-2.228c-0.587,0.061-0.96,0.478-0.962,1.079c-0.005,1.192,1.294,2.363,2.479,2.234
		C253.636,168.079,253.996,167.67,254.002,167.058z M285.681,337.881c0.71-0.323,1.011-0.65,1.291-1.38
		c0.269-0.702,0.237-1.398-0.116-2.271c-0.412-0.028-0.786,0.082-1.175,0.374C285.681,335.685,285.681,336.775,285.681,337.881z
		 M203.9,334.24c-0.227,0.898-0.277,1.704,0.115,2.485c0.254,0.506,0.531,1.002,1.203,1.237c0.101-0.655-0.013-1.219-0.059-1.774
		c-0.046-0.564,0.19-1.144-0.074-1.716c-0.244-0.079-0.474-0.167-0.712-0.227C204.259,334.217,204.133,334.24,203.9,334.24z"/>
	<path fill="#1A1A1A" d="M182.219,218.957c0.188-0.086,0.313-0.112,0.398-0.185c2.336-2.023,5.095-3.25,7.983-4.225
		c2.725-0.919,5.539-1.448,8.39-1.77c4.379-0.494,8.781-0.622,13.182-0.715c3.284-0.069,6.559,0.141,9.805,0.684
		c0.858,0.144,1.714,0.319,2.557,0.535c3.878,0.992,6.625,3.321,8.191,7.014c1.517,3.578,2.095,7.292,1.896,11.188
		c-0.249,4.884-1.652,9.378-4.08,13.579c-1.646,2.849-3.613,5.465-5.772,7.952c-4.333,4.991-9.671,8.57-15.641,11.267
		c-2.796,1.263-5.736,1.928-8.827,1.813c-2.507-0.094-4.946-0.487-7.29-1.437c-2.664-1.079-4.978-2.645-6.905-4.776
		c-1.931-2.135-3.565-4.475-4.946-7.004c-1.92-3.516-3.467-7.178-4.402-11.077c-0.445-1.855-0.817-3.73-1.137-5.611
		c-0.428-2.515-0.279-5.053-0.132-7.584c0.205-3.524,1.118-6.871,2.563-10.082c0.834-1.855,1.653-3.717,2.479-5.575
		c0.067-0.152,0.123-0.311,0.212-0.451c1.27-2.005,2.177-4.2,3.32-6.27c0.459-0.831,1.012-1.618,1.587-2.375
		c0.467-0.616,1.157-0.774,1.907-0.614c0.622,0.133,0.934,0.547,0.853,1.168c-0.037,0.284-0.122,0.571-0.237,0.834
		c-1.527,3.5-3.06,6.998-4.602,10.491c-0.369,0.835-0.779,1.651-1.161,2.481C182.311,218.426,182.203,218.648,182.219,218.957z"/>
	<path fill="#1A1A1A" d="M308.739,218.984c-0.278-0.954-0.662-1.685-1.02-2.418c-1.425-2.91-2.718-5.877-3.94-8.877
		c-0.313-0.769-0.679-1.516-0.994-2.283c-0.141-0.342-0.265-0.704-0.312-1.067c-0.072-0.562,0.237-0.951,0.8-1.086
		c0.691-0.166,1.344-0.065,1.835,0.474c0.417,0.458,0.826,0.945,1.126,1.482c0.707,1.268,1.414,2.543,1.999,3.87
		c1.039,2.358,2.232,4.632,3.441,6.906c1.965,3.696,3.316,7.612,3.627,11.821c0.134,1.82,0.179,3.649,0.209,5.475
		c0.024,1.415-0.222,2.807-0.475,4.201c-0.453,2.495-0.976,4.97-1.787,7.374c-1.66,4.917-3.979,9.484-7.207,13.572
		c-2.541,3.218-5.687,5.57-9.641,6.742c-4.208,1.248-8.425,1.321-12.616-0.105c-0.824-0.28-1.645-0.587-2.432-0.955
		c-5.351-2.501-10.235-5.672-14.282-10.032c-2.609-2.811-4.917-5.849-6.828-9.177c-1.901-3.309-3.217-6.84-3.731-10.629
		c-0.623-4.596-0.378-9.119,1.435-13.462c0.271-0.65,0.572-1.292,0.911-1.909c1.473-2.676,3.722-4.42,6.601-5.361
		c1.582-0.517,3.219-0.811,4.869-1.014c4.093-0.502,8.197-0.588,12.313-0.341c2.155,0.129,4.316,0.178,6.47,0.333
		c3.692,0.267,7.343,0.79,10.881,1.943c3.022,0.985,5.891,2.253,8.33,4.351C308.378,218.862,308.468,218.875,308.739,218.984z"/>
	<path fill="#1A1A1A" d="M245.334,283.359c-0.045,0.187-0.104,0.371-0.133,0.56c-0.347,2.266-0.93,4.469-1.745,6.612
		c-0.415,1.091-0.915,2.141-1.563,3.111c-0.345,0.517-0.726,1.015-1.139,1.479c-2.063,2.319-4.668,3.042-7.669,2.546
		c-1.322-0.218-2.574-0.646-3.75-1.292c-2.38-1.307-3.675-3.361-3.849-6.025c-0.173-2.652-0.236-5.317-0.194-7.974
		c0.039-2.461,0.648-4.847,1.341-7.206c1.185-4.033,2.808-7.899,4.408-11.777c1.362-3.3,2.624-6.642,3.913-9.971
		c0.721-1.861,1.474-3.704,2.512-5.417c0.654-1.08,1.459-2.015,2.522-2.718c0.809-0.535,1.692-0.896,2.637-1.072
		c1.898-0.354,3.809-0.363,5.702,0.015c1.73,0.345,3.186,1.214,4.262,2.617c0.578,0.754,1.094,1.573,1.52,2.421
		c0.613,1.223,1.191,2.474,1.656,3.759c1.783,4.922,3.795,9.75,5.814,14.578c1.427,3.413,2.614,6.915,3.431,10.529
		c0.46,2.033,0.691,4.089,0.586,6.184c-0.096,1.909-0.111,3.821-0.16,5.732c-0.029,1.143-0.346,2.211-0.843,3.23
		c-0.464,0.949-1.1,1.78-1.964,2.383c-2.563,1.788-5.371,2.557-8.492,1.919c-1.347-0.275-2.462-0.969-3.451-1.889
		c-1.365-1.27-2.296-2.835-3.006-4.537c-0.964-2.31-1.604-4.714-1.993-7.185c-0.032-0.201-0.075-0.4-0.113-0.6
		C245.494,283.367,245.414,283.363,245.334,283.359z"/>
	<path fill="#1A1A1A" d="M183.115,285.035c1.293,0.075,2.563-0.052,3.82-0.394c1.158-0.315,2.161-0.87,2.96-1.749
		c0.697-0.767,1.355-1.573,1.986-2.396c1.088-1.421,2.236-2.784,3.547-4.006c2.277-2.124,4.991-3.399,7.989-4.113
		c0.684-0.163,1.383-0.281,2.082-0.362c0.589-0.068,1.164,0.036,1.624,0.467c0.454,0.426,0.466,1.005-0.003,1.412
		c-0.214,0.186-0.479,0.331-0.744,0.434c-0.385,0.15-0.791,0.247-1.189,0.365c-2.884,0.852-5.415,2.307-7.508,4.476
		c-0.98,1.016-1.908,2.082-2.861,3.123c-0.365,0.398-0.742,0.785-1.1,1.189c-2.234,2.51-5.109,3.601-8.388,3.799
		c-1.084,0.065-2.161-0.008-3.222-0.229c-0.608-0.127-1.215-0.291-1.689-0.737c-0.31-0.291-0.287-0.691,0.032-0.972
		c0.268-0.236,0.586-0.303,0.923-0.307C181.953,285.03,182.534,285.035,183.115,285.035z"/>
	<path fill="#1A1A1A" d="M306.266,287.357c-1.557-0.06-3.067-0.321-4.535-0.804c-1.483-0.488-2.791-1.291-3.884-2.403
		c-1.018-1.036-1.984-2.124-2.975-3.187c-0.622-0.669-1.228-1.354-1.874-1.999c-2.04-2.037-4.467-3.423-7.226-4.241
		c-0.358-0.106-0.715-0.214-1.07-0.331c-0.196-0.065-0.394-0.133-0.575-0.231c-0.491-0.264-0.78-0.699-0.704-1.073
		c0.101-0.496,0.437-0.827,0.9-0.938c0.434-0.104,0.907-0.147,1.349-0.095c1.951,0.232,3.813,0.807,5.595,1.624
		c1.831,0.839,3.463,1.983,4.838,3.454c0.991,1.06,1.904,2.193,2.838,3.306c0.587,0.699,1.133,1.433,1.724,2.129
		c1.064,1.254,2.439,1.957,4.044,2.268c1.316,0.256,2.639,0.276,3.97,0.232c0.332-0.011,0.665-0.036,0.995-0.013
		c0.199,0.014,0.409,0.08,0.586,0.174c0.542,0.287,0.602,0.877,0.072,1.185c-0.493,0.286-1.047,0.517-1.603,0.634
		C307.924,287.216,307.089,287.26,306.266,287.357z"/>
	<path fill="#1A1A1A" d="M191.742,269.673c-1.299-0.258-2.608-0.476-3.895-0.785c-1.454-0.349-2.845-0.896-4.206-1.517
		c-1.182-0.54-2.278-1.22-3.178-2.153c-1.612-1.672-3.224-3.349-4.747-5.102c-1.533-1.764-2.367-3.885-2.722-6.186
		c-0.081-0.527-0.102-1.082-0.032-1.608c0.104-0.793,0.706-1.198,1.512-1.15c0.364,0.022,0.651,0.177,0.824,0.478
		c0.227,0.394,0.447,0.8,0.602,1.226c0.977,2.694,2.476,5.054,4.437,7.137c0.853,0.906,1.645,1.869,2.462,2.809
		c0.968,1.114,2.126,1.96,3.472,2.571c1.939,0.88,3.94,1.527,6.066,1.755c0.206,0.022,0.416,0.041,0.612,0.101
		c0.82,0.252,1.023,0.974,0.472,1.652C193.054,269.354,192.481,269.592,191.742,269.673z"/>
	<path fill="#1A1A1A" d="M317.989,253.045c-0.153,2.067-0.8,3.975-1.865,5.744c-0.256,0.425-0.528,0.854-0.861,1.218
		c-1.625,1.775-3.256,3.544-4.92,5.281c-0.69,0.72-1.521,1.286-2.415,1.741c-2.651,1.349-5.459,2.185-8.409,2.545
		c-0.455,0.056-0.921,0.065-1.339-0.163c-0.25-0.136-0.512-0.289-0.697-0.499c-0.614-0.696-0.363-1.474,0.551-1.685
		c0.563-0.13,1.147-0.171,1.719-0.268c1.855-0.314,3.599-0.956,5.286-1.777c1.022-0.497,1.934-1.139,2.686-1.984
		c1.435-1.612,2.87-3.225,4.255-4.879c1.208-1.443,2.068-3.102,2.767-4.845c0.216-0.538,0.428-1.082,0.699-1.592
		c0.342-0.644,0.771-0.827,1.438-0.684c0.596,0.127,0.925,0.527,1.043,1.103C317.976,252.541,317.97,252.794,317.989,253.045z"/>
	<path fill="#1A1A1A" d="M213.522,267.417c-0.287-0.035-0.585-0.033-0.858-0.114c-0.555-0.163-0.736-0.725-0.381-1.182
		c0.175-0.225,0.388-0.441,0.627-0.592c0.734-0.463,1.471-0.93,2.242-1.326c0.92-0.473,1.877-0.874,2.818-1.307
		c2.724-1.253,5.004-3.076,6.892-5.396c0.549-0.675,1.061-1.38,1.598-2.066c0.511-0.653,1.015-1.312,1.554-1.942
		c0.619-0.724,1.442-0.94,2.361-0.814c0.654,0.09,1.032,0.583,0.927,1.23c-0.045,0.278-0.143,0.574-0.303,0.802
		c-2.387,3.41-4.916,6.687-8.47,9.001c-2.13,1.388-4.413,2.456-6.816,3.273C215.007,267.226,214.286,267.429,213.522,267.417z"/>
	<path fill="#1A1A1A" d="M277.536,267.387c-1.047,0.017-1.763-0.196-2.47-0.436c-4.818-1.632-8.975-4.249-12.185-8.25
		c-0.959-1.196-1.872-2.431-2.776-3.67c-0.237-0.325-0.429-0.718-0.515-1.108c-0.143-0.643,0.25-1.147,0.903-1.241
		c0.917-0.131,1.743,0.078,2.365,0.8c0.541,0.628,1.043,1.289,1.556,1.94c0.615,0.782,1.2,1.589,1.837,2.352
		c1.78,2.128,3.91,3.817,6.423,5.009c0.973,0.462,1.97,0.876,2.928,1.366c0.809,0.414,1.585,0.893,2.358,1.371
		c0.241,0.149,0.454,0.365,0.632,0.588c0.358,0.453,0.189,1.03-0.359,1.189C277.92,267.388,277.579,267.382,277.536,267.387z"/>
	<path fill="#1A1A1A" d="M254.076,309.525c0.646,0.072,1.093,0.464,1.248,1.203c0.145,0.689,0.215,1.394,0.326,2.091
		c0.111,0.697,0.228,1.393,0.35,2.088c0.298,1.701,0.929,3.268,1.897,4.699c0.116,0.171,0.225,0.35,0.313,0.536
		c0.207,0.437,0.031,0.849-0.439,0.962c-0.231,0.056-0.496,0.059-0.729,0.009c-0.627-0.133-1.138-0.486-1.584-0.939
		c-0.834-0.847-1.421-1.854-1.735-2.986c-0.58-2.093-0.788-4.241-0.8-6.409c-0.001-0.124,0.007-0.25,0.025-0.373
		C253.045,309.772,253.453,309.456,254.076,309.525z"/>
	<path fill="#1A1A1A" d="M237.935,311.657c-0.111,1.782-0.244,3.563-0.711,5.297c-0.319,1.184-0.876,2.238-1.719,3.134
		c-0.434,0.461-0.928,0.834-1.552,0.994c-0.198,0.051-0.411,0.104-0.608,0.08c-0.647-0.08-0.975-0.538-0.621-1.14
		c0.084-0.143,0.17-0.285,0.264-0.422c1.025-1.5,1.648-3.159,1.944-4.944c0.183-1.106,0.347-2.214,0.53-3.32
		c0.054-0.326,0.116-0.654,0.219-0.966c0.158-0.475,0.532-0.731,1.008-0.83c0.669-0.14,1.165,0.196,1.238,0.873
		C237.971,310.823,237.935,311.242,237.935,311.657z"/>
	<path fill="#1A1A1A" d="M266.419,313.705c-0.014-0.951,0.42-1.547,1.275-1.811c0.653-0.201,1.162,0.071,1.328,0.726
		c0.051,0.2,0.073,0.408,0.089,0.614c0.113,1.453,0.441,2.863,0.844,4.258c0.126,0.437,0.278,0.875,0.33,1.323
		c0.036,0.311-0.005,0.675-0.138,0.955c-0.356,0.749-1.191,0.831-1.719,0.202c-0.132-0.157-0.243-0.336-0.343-0.517
		C267.085,317.649,266.586,315.697,266.419,313.705z"/>
	<path fill="#1A1A1A" d="M224.458,313.757c-0.172,1.961-0.663,3.832-1.59,5.578c-0.116,0.219-0.249,0.433-0.405,0.624
		c-0.522,0.636-1.328,0.552-1.736-0.166c-0.197-0.346-0.216-0.712-0.125-1.084c0.128-0.523,0.265-1.044,0.416-1.56
		c0.362-1.236,0.621-2.49,0.742-3.773c0.027-0.288,0.057-0.58,0.135-0.856c0.149-0.53,0.623-0.801,1.157-0.665
		C224.133,312.13,224.581,312.935,224.458,313.757z"/>
	<path fill="#1A1A1A" d="M233.834,389.099c-1.312-0.382-2.64-0.719-3.931-1.163c-0.898-0.309-1.771-0.719-2.609-1.169
		c-1.717-0.923-3.39-1.929-5.105-2.855c-1.789-0.966-3.593-1.905-5.416-2.804c-1.748-0.863-3.538-1.642-5.293-2.491
		c-5.679-2.75-7.248-4.578-10.158-8.698c-1.293-1.831-2.52-3.71-3.839-5.522c-1.704-2.341-2.631-4.973-3.097-7.794
		c-0.06-0.365-0.062-0.747-0.03-1.116c0.04-0.458,0.325-0.753,0.772-0.869c0.439-0.114,0.849-0.032,1.111,0.35
		c0.232,0.339,0.41,0.719,0.579,1.096c0.425,0.946,0.832,1.901,1.245,2.853c0.666,1.538,1.588,2.913,2.673,4.182
		c0.567,0.663,1.164,1.3,1.719,1.972c0.872,1.056,1.804,2.076,2.562,3.21c2.063,3.086,4.778,5.379,8.079,7.032
		c2.97,1.487,5.909,3.035,8.711,4.824c1.994,1.273,3.963,2.586,5.941,3.885c2.066,1.356,4.253,2.421,6.726,2.802
		c0.162,0.025,0.33,0.059,0.474,0.131c0.282,0.141,0.439,0.389,0.427,0.705C235.345,388.414,234.613,389.057,233.834,389.099z"/>
	<path fill="#1A1A1A" d="M296.547,356.259c-0.353,2.314-0.973,4.715-2.324,6.867c-0.485,0.773-1.029,1.509-1.548,2.261
		c-0.872,1.264-1.732,2.537-2.623,3.788c-0.867,1.217-1.741,2.43-2.658,3.609c-1.158,1.488-2.574,2.701-4.163,3.717
		c-1.402,0.896-2.861,1.682-4.371,2.378c-1.545,0.711-3.086,1.433-4.621,2.167c-2.209,1.057-4.39,2.161-6.486,3.439
		c-1.487,0.906-3.041,1.705-4.588,2.506c-1.854,0.96-3.829,1.571-5.875,1.988c-0.708,0.145-1.484-0.327-1.697-0.936
		c-0.193-0.555,0.001-1.014,0.55-1.174c0.119-0.034,0.245-0.04,0.368-0.06c2.382-0.386,4.503-1.404,6.501-2.709
		c1.495-0.976,2.967-1.986,4.466-2.955c2.826-1.827,5.735-3.509,8.738-5.03c1.184-0.6,2.346-1.245,3.498-1.905
		c2.008-1.151,3.732-2.642,5.079-4.526c1.622-2.268,3.406-4.397,5.257-6.477c1.165-1.309,2.122-2.764,2.81-4.386
		c0.389-0.917,0.79-1.828,1.195-2.738c0.151-0.34,0.302-0.686,0.5-1c0.278-0.44,0.7-0.587,1.18-0.471
		c0.474,0.115,0.757,0.452,0.809,0.98C296.561,355.755,296.547,355.923,296.547,356.259z"/>
	<path fill="#1A1A1A" d="M277.568,358.446c0.178-0.935,0.337-1.874,0.537-2.804c0.517-2.406,1.361-4.693,2.618-6.812
		c0.377-0.636,0.844-1.226,1.327-1.789c0.378-0.441,0.909-0.552,1.478-0.383c0.588,0.175,0.858,0.668,0.638,1.246
		c-0.31,0.812-0.65,1.613-0.985,2.415c-1.057,2.531-1.827,5.147-2.345,7.84c-0.086,0.447-0.176,0.895-0.305,1.331
		c-0.13,0.438-0.461,0.662-0.913,0.731C278.732,360.354,277.434,359.753,277.568,358.446z"/>
	<path fill="#1A1A1A" d="M213.285,358.627c0.113,1.165-1.369,1.94-2.423,1.474c-0.324-0.143-0.49-0.437-0.563-0.776
		c-0.122-0.567-0.24-1.134-0.353-1.703c-0.614-3.104-1.683-6.059-2.918-8.96c-0.114-0.267-0.238-0.53-0.331-0.804
		c-0.176-0.521,0.061-0.998,0.585-1.178c0.555-0.191,1.093-0.116,1.496,0.31c0.424,0.448,0.826,0.933,1.152,1.455
		c0.879,1.41,1.572,2.914,2.1,4.491c0.541,1.614,0.905,3.271,1.181,4.948C213.252,358.13,213.261,358.379,213.285,358.627z"/>
	<path fill="#1A1A1A" d="M267.564,360.66c-1.017-0.031-1.633-0.712-1.481-1.693c0.204-1.314,0.506-2.609,1.02-3.84
		c0.222-0.532,0.512-1.043,0.826-1.528c0.303-0.468,0.783-0.584,1.317-0.461c0.525,0.121,0.867,0.534,0.865,1.067
		c-0.001,0.205-0.029,0.416-0.083,0.613c-0.453,1.682-0.908,3.363-1.378,5.04C268.479,360.466,268.161,360.678,267.564,360.66z"/>
	<path fill="#1A1A1A" d="M224.859,359.283c-0.009,0.566-0.304,0.934-0.785,1.178c-0.469,0.239-0.961,0.318-1.419,0.03
		c-0.188-0.118-0.344-0.369-0.406-0.591c-0.488-1.715-0.966-3.434-1.412-5.16c-0.205-0.792,0.05-1.333,0.636-1.56
		c0.608-0.235,1.203-0.047,1.598,0.584c0.306,0.49,0.614,1.004,0.781,1.55c0.363,1.187,0.636,2.402,0.944,3.606
		C224.826,359.042,224.839,359.166,224.859,359.283z"/>
</g>
</svg>
