<svg xmlns="http://www.w3.org/2000/svg" width="575.927" height="623.455"><path fill="#f2f2f2" d="M216.58 539.933l213-9.478 119 93h-401l69-83.522z"/><path d="M386.807 91.608c-8.695-6.16-20.653-4.672-27.573 3.432l-35.713 41.827-80.007-10.694-14.81-2.961a26.8 26.8 0 00-11.201-5.906c-10.348-2.76-20.16.343-21.914 6.929-1.755 6.585 5.211 14.159 15.563 16.918a26.806 26.806 0 0012.65.452l6.034 1.528 90.695 33.294 66.958-51.708c10.958-8.462 10.614-25.108-.682-33.11z" fill="#ffb6b6"/><path fill="#ffb6b6" d="M369.819 66.439l-13.058-23.221-21.141 18.82 5.42 31.075 28.779-26.674z"/><circle cx="321.501" cy="40.066" r="32.775" fill="#ffb6b6"/><path d="M329.457 50.62l-18.933-3.317-2.705-10.758s-16.838 23.69-23.234 2.271C278.189 17.397 307.92-.228 316.751.051c8.832.279 34.743-2.793 39.324 14.503 4.581 17.295 3.808 36.19 3.808 36.19l-10.279.735s-11.166-15.912-14.275-12.65c-3.109 3.26-5.873 11.792-5.873 11.792z" fill="#2f2e41"/><path d="M287.716 336.913l-8.567 78.533 37.598 114.138a32.508 32.508 0 01-10.172 35.233l-21.215 17.525a4.18 4.18 0 004.022 7.177l26.991-9.278a89.738 89.738 0 0129.172-4.874h4.984a7.152 7.152 0 006.614-9.876l-9.456-22.965-25.702-121.369 7.14-41.408-41.41-42.836z" fill="#ffb6b6"/><path d="M346.259 371.182l7.139 47.12 18.562 117.085-7.139 25.702-29.656 24.163c-3.857 3.143-2.73 9.306 1.991 10.879a6.31 6.31 0 003.933.019l42.294-13.643 11.476-4.099a12.83 12.83 0 007.66-16.687l-6.285-16.339-6.425-126.367.714-46.405-44.264-1.428z" fill="#ffb6b6"/><path d="M309.213 252.85l-7.72-83.818c-1.53-16.617 2.479-33.573 11.289-47.747l19.477-31.246 37.585-28.911 16.512 14.26c9.654 8.337 14.234 21.312 11.952 33.863l-16.347 89.907 2.898 34.78-75.646 18.912z" fill="#63ff9c"/><path d="M400.542 536.815h-29.895l-.103-.59-30.201-170.668-16.907 52.071 21.516 104.713-28.386 7.47-43.435-104.76c-3.509-8.46-4.213-18.012-1.981-26.897l37.235-148.248 75.9-17.289.27.227c33.801 28.283 10.124 66.877 8.116 70l7.871 233.97z" fill="#2f2e41"/><path d="M573.547 305.214a38.317 38.317 0 01-10.38 15.292 38.392 38.392 0 01-16.321 8.697c-40.58 10.237-137.89 26.786-245.836-12.551-16.735-6.112-33.584-11.952-50.604-17.235-29.271-9.095-55.302-18.834-78.419-28.843-10.623-4.598-20.618-9.238-30.028-13.922-12.694-6.297-24.345-12.636-34.997-18.934-10.48-6.168-20.005-12.293-28.657-18.29C17.72 177.447 0 142.007 0 142.007s34.755-17.148 109.29-20.018c10.694-.414 22.203-.529 34.554-.271 12.58.27 26.015.942 40.337 2.127 10.638.857 21.746 2.013 33.355 3.47 38.21 4.812 81.76 13.036 130.864 26.116 167.004 44.464 212.268 95.781 224.32 123.153 3.983 9.068 4.254 19.334.827 28.629z" fill="#e6e6e6"/><path d="M368.396 79.537c-10.655-.137-19.656 7.875-20.754 18.475l-5.667 54.706-71.943 36.602-13.875 5.967a26.8 26.8 0 00-12.574 1.494c-10.085 3.6-16.403 11.723-14.11 18.142 2.293 6.417 12.326 8.7 22.415 5.097a26.807 26.807 0 0010.672-6.807l5.836-2.167 83.836-21.557a18.193 18.193 0 0012.796-12.075l22.721-71.003c4.22-13.185-5.51-26.695-19.353-26.874z" fill="#ffb6b6"/><path d="M143.844 121.719l-36.882 116c-10.48-6.169-20.005-12.294-28.657-18.292l30.984-97.437c10.695-.414 22.204-.529 34.555-.271zM217.536 127.316l-45.55 143.258c-10.622-4.598-20.617-9.238-30.027-13.922l42.222-132.806c10.638.857 21.746 2.013 33.355 3.47z" fill="#3f3d56"/><path d="M380.926 168.863l-47.948-10.148 14.488-68.449a21.281 21.281 0 019.273-13.518c4.795-3.12 10.518-4.182 16.116-3.001l6.04 1.279c11.554 2.445 18.964 13.835 16.519 25.389l-14.488 68.448z" fill="#63ff9c"/></svg>