<?xml version="1.0" standalone="no"?>
<!DOCTYPE svg PUBLIC "-//W3C//DTD SVG 20010904//EN"
 "http://www.w3.org/TR/2001/REC-SVG-20010904/DTD/svg10.dtd">
<svg version="1.0" xmlns="http://www.w3.org/2000/svg"
 width="1280.000000pt" height="960.000000pt" viewBox="0 0 1280.000000 960.000000"
 preserveAspectRatio="xMidYMid meet">
<metadata>
Created by potrace 1.15, written by Peter Selinger 2001-2017
</metadata>
<g transform="translate(0.000000,960.000000) scale(0.100000,-0.100000)"
fill="#000000" stroke="none">
<path d="M12610 7928 c-943 -434 -1934 -892 -2390 -1105 -305 -142 -788 -365
-1072 -494 -355 -160 -518 -239 -518 -249 0 -13 94 -247 194 -484 l16 -38
-241 3 -242 4 -111 -210 c-115 -215 -588 -1039 -874 -1520 l-160 -270 -194 -7
c-106 -4 -380 -14 -608 -23 -435 -16 -1390 -44 -2430 -70 l-614 -16 -18 23
c-182 229 -824 1103 -1292 1758 -93 129 -180 245 -195 257 -24 21 -36 23 -150
23 -115 0 -171 -9 -865 -135 -407 -75 -765 -140 -794 -146 l-52 -10 0 -365 c0
-200 2 -364 6 -364 3 0 307 97 676 215 369 118 672 214 673 213 3 -3 64 -922
61 -924 0 -1 -318 -168 -706 -372 l-705 -371 -3 -426 c-2 -341 0 -425 10 -419
7 5 331 228 720 496 389 268 711 488 716 488 7 0 47 -539 40 -545 -2 -1 -334
-157 -738 -345 -404 -189 -739 -346 -743 -350 -4 -4 -6 -52 -5 -108 l3 -101
745 350 c410 192 749 349 753 349 5 0 7 -17 5 -37 -3 -34 -16 -49 -149 -168
l-145 -130 -605 -286 -604 -286 -3 -141 c-1 -78 -1 -142 2 -142 2 0 114 51
248 114 133 63 245 112 248 109 3 -3 -19 -26 -48 -52 -41 -35 -98 -66 -250
-132 l-197 -86 -3 -702 -2 -701 6400 0 6400 0 -1 143 0 142 -268 219 -268 218
-7 141 c-3 77 -5 141 -4 142 2 2 125 -94 273 -212 l270 -215 3 837 c1 461 1
840 -1 841 -1 2 -398 -197 -882 -441 -810 -409 -1210 -604 -1219 -594 -1 2 1
54 5 114 5 61 22 432 39 825 40 936 44 1008 55 1019 6 5 129 66 275 136 146
70 595 294 997 498 l733 372 0 442 0 441 -437 -215 c-241 -119 -683 -336 -983
-483 l-545 -267 -3 33 c-2 18 6 243 17 501 11 257 26 725 32 1038 6 314 14
573 18 577 7 8 1108 541 1566 758 l330 156 3 422 c1 232 -1 422 -5 421 -5 0
-87 -37 -183 -81z m-2589 -2327 c-5 -128 -11 -234 -13 -236 -5 -5 -727 111
-734 118 -5 4 749 357 754 352 1 -1 -2 -107 -7 -234z m-632 -802 c284 -94 533
-173 555 -177 l38 -7 -1 -115 c-1 -63 -6 -270 -11 -460 -5 -190 -10 -353 -10
-363 0 -21 -279 -164 -301 -153 -8 3 -196 123 -419 265 l-405 258 2 94 c2 52
5 259 9 462 4 230 10 367 16 367 6 0 242 -77 527 -171z m-7389 -417 c30 -37
180 -207 332 -378 l277 -312 11 -127 c16 -206 21 -187 -60 -224 -39 -17 -74
-31 -80 -31 -5 0 -113 102 -240 227 l-232 227 30 26 29 25 -12 230 c-7 127
-13 231 -14 233 0 1 -23 2 -51 2 l-50 0 0 48 c0 26 -3 64 -6 85 -4 20 -3 37 2
36 5 0 34 -30 64 -67z m6350 18 c0 -50 0 -50 -27 -44 -16 4 -29 8 -31 9 -3 3
50 84 56 85 1 0 2 -23 2 -50z m-111 -304 l-4 -195 27 -28 27 -28 -117 -137
c-89 -103 -120 -134 -130 -126 -7 6 -49 14 -95 17 l-82 6 -3 86 -3 87 188 256
c103 141 189 256 192 256 2 0 2 -87 0 -194z m1131 -1150 c298 -252 544 -464
546 -470 5 -14 -43 -1077 -49 -1083 -3 -2 -248 269 -547 602 l-542 606 16 372
c9 205 16 387 16 405 0 19 4 32 10 30 5 -1 253 -209 550 -462z m-2293 390 c-3
-8 -28 -51 -56 -96 l-51 -81 7 -73 6 -74 -129 -6 c-71 -3 -399 -15 -729 -26
-330 -11 -628 -21 -662 -23 l-63 -3 0 167 0 168 43 5 c50 7 1324 53 1511 55
107 1 127 -1 123 -13z m446 -153 c-3 -82 -6 -149 -7 -150 0 0 -46 -3 -101 -5
-92 -3 -100 -2 -100 16 0 17 193 284 206 285 4 1 5 -65 2 -146z m791 93 c-3
-9 -10 -13 -16 -10 -5 3 -4 12 3 20 15 18 22 13 13 -10z m-3102 -153 c3 -93 4
-170 2 -172 -3 -3 -549 -19 -1251 -37 l-293 -7 0 74 0 75 -74 91 -74 91 121 6
c67 3 331 11 587 17 391 10 750 20 936 27 l41 2 5 -167z m-2048 -28 c75 -79
131 -147 136 -165 l9 -30 -143 0 -143 0 -7 92 c-10 153 -8 238 8 238 7 0 70
-61 140 -135z m-1100 50 c22 -17 22 -17 -21 -39 l-33 -17 0 46 c0 49 4 50 54
10z m6075 -165 c48 -61 62 -86 59 -108 -3 -26 -6 -27 -63 -30 -81 -4 -96 14
-88 113 5 61 16 105 27 105 2 0 31 -36 65 -80z m-5686 -142 c137 -105 194
-154 185 -159 -7 -5 -124 -9 -259 -9 l-246 0 -9 130 -9 131 60 28 c33 16 65
30 70 30 6 1 99 -67 208 -151z m5417 2 c0 -5 -5 -10 -11 -10 -5 0 -7 5 -4 10
3 6 8 10 11 10 2 0 4 -4 4 -10z m-455 -30 c-3 -5 -26 -10 -51 -10 -24 0 -44 5
-44 10 0 6 23 10 51 10 31 0 48 -4 44 -10z m-347 -42 c-2 -27 -7 -32 -28 -32
-49 0 -51 -31 -10 -158 16 -51 27 -94 25 -97 -10 -10 -1425 -81 -1614 -81
l-31 0 0 170 0 170 46 0 c62 0 1070 39 1269 49 88 4 202 9 253 9 l93 2 -3 -32z
m-1836 -200 c2 -90 2 -166 -1 -169 -7 -8 -650 -27 -1208 -36 l-423 -6 0 129
c0 71 -3 145 -6 166 l-6 36 73 6 c88 7 1090 32 1370 35 l197 1 4 -162z m2878
-115 c35 -60 69 -117 77 -129 12 -20 10 -23 -43 -58 -31 -21 -57 -36 -59 -34
-1 2 -35 62 -75 133 -40 72 -81 142 -92 157 l-19 27 48 4 c26 2 60 4 74 5 23
2 33 -10 89 -105z m-5416 -234 c4 -84 5 -153 4 -155 -2 -1 -94 -4 -205 -5
-193 -2 -204 -1 -257 22 -59 26 -75 45 -54 65 14 14 477 224 494 224 7 0 13
-52 18 -151z m4304 -61 c7 -56 14 -104 17 -106 3 -3 16 0 30 6 l25 12 0 -65
c0 -45 -4 -65 -12 -66 -80 -5 -102 -9 -108 -19 -5 -9 -9 -8 -12 2 -5 11 -43
13 -189 11 -235 -2 -320 -9 -330 -25 -6 -8 -9 -9 -9 -2 0 9 -38 12 -125 12
-101 0 -125 -3 -125 -14 0 -18 -10 -18 -24 1 -10 13 -15 12 -45 -2 -19 -10
-36 -13 -38 -8 -3 11 -120 11 -313 1 -63 -3 -161 -8 -217 -10 l-101 -4 -4 151
c-2 84 -3 153 -3 154 1 2 255 14 566 28 310 14 636 29 724 34 88 4 187 9 221
10 l60 1 12 -102z m-1754 -125 c3 -80 4 -148 2 -151 -5 -4 -159 -5 -196 -1 -8
1 -60 -1 -115 -5 -130 -8 -319 -16 -525 -21 -91 -3 -241 -7 -335 -10 -93 -3
-226 -6 -295 -8 -69 -2 -131 -6 -138 -11 -9 -5 -12 9 -12 59 0 63 1 66 23 64
41 -6 47 7 47 105 l0 93 373 8 c204 4 491 11 637 15 146 4 324 7 396 8 l131 2
7 -147z m-1993 76 c-65 -30 -96 -39 -137 -39 l-54 0 0 40 0 40 138 -1 137 0
-84 -40z m5972 -782 l458 -612 -227 -113 c-125 -61 -232 -112 -239 -112 -6 0
-17 11 -23 24 -16 36 -130 207 -157 236 -13 14 -34 48 -47 75 -13 28 -88 141
-166 253 -78 111 -142 205 -142 207 0 3 11 5 24 5 23 0 23 2 29 118 4 64 10
210 13 325 4 114 10 207 13 207 3 0 212 -276 464 -613z m-7648 333 l7 -95
-363 -167 c-200 -92 -364 -166 -365 -165 -2 1 117 128 263 282 l265 280 87 37
86 37 7 -57 c3 -31 9 -100 13 -152z"/>
</g>
</svg>
